<svg width="1008" height="650" viewBox="0 0 1008 650" fill="none" xmlns="http://www.w3.org/2000/svg">
<g clip-path="url(#clip0_66_42)">
<rect width="1008" height="650" fill="#0B0C0C"/>
<mask id="path-1-inside-1_66_42" fill="white">
<path d="M-1 59H192V650H-1V59Z"/>
</mask>
<path d="M-1 59H192V650H-1V59Z" fill="#232323"/>
<path d="M-1 59V58H-2V59H-1ZM192 59H193V58H192V59ZM-1 60H192V58H-1V60ZM191 59V650H193V59H191ZM0 650V59H-2V650H0Z" fill="#949494" mask="url(#path-1-inside-1_66_42)"/>
<mask id="path-3-inside-2_66_42" fill="white">
<path d="M816 59H1009V650H816V59Z"/>
</mask>
<path d="M816 59H1009V650H816V59Z" fill="#232323"/>
<path d="M816 59V58H815V59H816ZM1009 59H1010V58H1009V59ZM816 60H1009V58H816V60ZM1008 59V650H1010V59H1008ZM817 650V59H815V650H817Z" fill="#949494" mask="url(#path-3-inside-2_66_42)"/>
<mask id="path-5-inside-3_66_42" fill="white">
<path d="M0 0H1008V60H0V0Z"/>
</mask>
<path d="M0 0H1008V60H0V0Z" fill="#232323"/>
<path d="M0 1H1008V-1H0V1ZM1008 59H0V61H1008V59Z" fill="#949494" mask="url(#path-5-inside-3_66_42)"/>
<rect x="10" y="10" width="39" height="8" rx="4" fill="#4A4A4A"/>
<rect x="10" y="10" width="39" height="8" rx="4" fill="#4A4A4A"/>
<rect x="10" y="10" width="39" height="8" rx="4" fill="#4A4A4A"/>
<rect x="10" y="10" width="39" height="8" rx="4" fill="#4A4A4A"/>
<rect x="10" y="26" width="25" height="8" rx="4" fill="#4A4A4A"/>
<rect x="10" y="26" width="25" height="8" rx="4" fill="#4A4A4A"/>
<rect x="10" y="26" width="25" height="8" rx="4" fill="#4A4A4A"/>
<rect x="10" y="26" width="25" height="8" rx="4" fill="#4A4A4A"/>
<rect x="10" y="41" width="10" height="8" rx="4" fill="#4A4A4A"/>
<rect x="10" y="41" width="10" height="8" rx="4" fill="#4A4A4A"/>
<rect x="10" y="41" width="10" height="8" rx="4" fill="#4A4A4A"/>
<rect x="10" y="41" width="10" height="8" rx="4" fill="#4A4A4A"/>
<rect x="63" y="10" width="39" height="39" rx="15" fill="#4A4A4A"/>
<rect x="63" y="10" width="39" height="39" rx="15" fill="#F53FA9"/>
<rect x="116" y="10" width="39" height="39" rx="15" fill="#4A4A4A"/>
<rect x="116" y="10" width="39" height="39" rx="15" fill="#4A4A4A"/>
<rect x="116" y="10" width="39" height="39" rx="15" fill="#4A4A4A"/>
<rect x="116" y="10" width="39" height="39" rx="15" fill="#4A4A4A"/>
<rect x="169" y="10" width="39" height="39" rx="15" fill="#4A4A4A"/>
<rect x="169" y="10" width="39" height="39" rx="15" fill="#4A4A4A"/>
<rect x="169" y="10" width="39" height="39" rx="15" fill="#4A4A4A"/>
<rect x="169" y="10" width="39" height="39" rx="15" fill="#4A4A4A"/>
<rect x="880" y="10" width="110" height="39" rx="15" fill="#4A4A4A"/>
<rect x="880" y="10" width="110" height="39" rx="15" fill="#4A4A4A"/>
<rect x="880" y="10" width="110" height="39" rx="15" fill="#4A4A4A"/>
<rect x="880" y="10" width="110" height="39" rx="15" fill="#4A4A4A"/>
<rect x="816" y="10" width="54" height="39" rx="15" fill="#4A4A4A"/>
<rect x="816" y="10" width="54" height="39" rx="15" fill="#4A4A4A"/>
<rect x="816" y="10" width="54" height="39" rx="15" fill="#4A4A4A"/>
<rect x="816" y="10" width="54" height="39" rx="15" fill="#4A4A4A"/>
<rect x="836" y="74" width="153" height="144" rx="15" fill="#4A4A4A"/>
<rect x="836" y="74" width="153" height="144" rx="15" fill="#4A4A4A"/>
<rect x="836" y="74" width="153" height="144" rx="15" fill="#4A4A4A"/>
<rect x="836" y="74" width="153" height="144" rx="15" fill="#4A4A4A"/>
<rect x="15" y="74" width="160" height="18" rx="9" fill="#4A4A4A"/>
<rect x="15" y="74" width="160" height="18" rx="9" fill="#4A4A4A"/>
<rect x="15" y="74" width="160" height="18" rx="9" fill="#4A4A4A"/>
<rect x="15" y="74" width="160" height="18" rx="9" fill="#4A4A4A"/>
<rect x="15" y="99" width="160" height="18" rx="9" fill="#4A4A4A"/>
<rect x="15" y="99" width="160" height="18" rx="9" fill="#4A4A4A"/>
<rect x="15" y="99" width="160" height="18" rx="9" fill="#4A4A4A"/>
<rect x="15" y="99" width="160" height="18" rx="9" fill="#4A4A4A"/>
<rect x="15" y="125" width="160" height="18" rx="9" fill="#4A4A4A"/>
<rect x="15" y="125" width="160" height="18" rx="9" fill="#4A4A4A"/>
<rect x="15" y="125" width="160" height="18" rx="9" fill="#4A4A4A"/>
<rect x="15" y="125" width="160" height="18" rx="9" fill="#4A4A4A"/>
<rect x="16" y="151" width="160" height="18" rx="9" fill="#4A4A4A"/>
<rect x="16" y="151" width="160" height="18" rx="9" fill="#4A4A4A"/>
<rect x="16" y="151" width="160" height="18" rx="9" fill="#4A4A4A"/>
<rect x="16" y="151" width="160" height="18" rx="9" fill="#4A4A4A"/>
<rect x="16" y="177" width="160" height="18" rx="9" fill="#4A4A4A"/>
<rect x="16" y="177" width="160" height="18" rx="9" fill="#4A4A4A"/>
<rect x="16" y="177" width="160" height="18" rx="9" fill="#4A4A4A"/>
<rect x="16" y="177" width="160" height="18" rx="9" fill="#4A4A4A"/>
<rect x="16" y="203" width="160" height="96" rx="15" fill="#4A4A4A"/>
<rect x="16" y="203" width="160" height="96" rx="15" fill="#4A4A4A"/>
<rect x="16" y="203" width="160" height="96" rx="15" fill="#4A4A4A"/>
<rect x="16" y="203" width="160" height="96" rx="15" fill="#4A4A4A"/>
<rect x="836" y="232" width="68" height="59" rx="15" fill="#4A4A4A"/>
<rect x="836" y="232" width="68" height="59" rx="15" fill="#4A4A4A"/>
<rect x="836" y="232" width="68" height="59" rx="15" fill="#4A4A4A"/>
<rect x="836" y="232" width="68" height="59" rx="15" fill="#4A4A4A"/>
<rect x="836" y="232" width="68" height="59" rx="15" fill="#F53FA9"/>
<rect x="836" y="305" width="153" height="27" rx="13.5" fill="#4A4A4A"/>
<rect x="836" y="305" width="153" height="27" rx="13.5" fill="#4A4A4A"/>
<rect x="836" y="305" width="153" height="27" rx="13.5" fill="#4A4A4A"/>
<rect x="836" y="305" width="153" height="27" rx="13.5" fill="#4A4A4A"/>
<rect x="836" y="347" width="153" height="282" rx="15" fill="#4A4A4A"/>
<rect x="836" y="347" width="153" height="282" rx="15" fill="#4A4A4A"/>
<rect x="836" y="347" width="153" height="282" rx="15" fill="#4A4A4A"/>
<rect x="836" y="347" width="153" height="282" rx="15" fill="#4A4A4A"/>
<rect x="913" y="232" width="76" height="10" rx="5" fill="#4A4A4A"/>
<rect x="913" y="232" width="76" height="10" rx="5" fill="#4A4A4A"/>
<rect x="913" y="232" width="76" height="10" rx="5" fill="#4A4A4A"/>
<rect x="913" y="232" width="76" height="10" rx="5" fill="#4A4A4A"/>
<rect x="913" y="265" width="76" height="10" rx="5" fill="#4A4A4A"/>
<rect x="913" y="265" width="76" height="10" rx="5" fill="#4A4A4A"/>
<rect x="913" y="265" width="76" height="10" rx="5" fill="#4A4A4A"/>
<rect x="913" y="265" width="76" height="10" rx="5" fill="#4A4A4A"/>
<rect x="913" y="249" width="76" height="10" rx="5" fill="#4A4A4A"/>
<rect x="913" y="249" width="76" height="10" rx="5" fill="#4A4A4A"/>
<rect x="913" y="249" width="76" height="10" rx="5" fill="#4A4A4A"/>
<rect x="913" y="249" width="76" height="10" rx="5" fill="#4A4A4A"/>
<rect x="913" y="280" width="76" height="10" rx="5" fill="#4A4A4A"/>
<rect x="913" y="280" width="76" height="10" rx="5" fill="#4A4A4A"/>
<rect x="913" y="280" width="76" height="10" rx="5" fill="#4A4A4A"/>
<rect x="913" y="280" width="76" height="10" rx="5" fill="#4A4A4A"/>
</g>
<defs>
<clipPath id="clip0_66_42">
<rect width="1008" height="650" fill="white"/>
</clipPath>
</defs>
</svg>
