<svg width="1118" height="659" viewBox="0 0 1118 659" fill="none" xmlns="http://www.w3.org/2000/svg">
<g clip-path="url(#clip0_66_41)">
<rect x="1" y="1" width="889" height="514" rx="15" fill="white"/>
<rect x="1" y="1" width="889" height="514" rx="15" fill="#0B0C0C"/>
<path d="M128.932 157.455C126.886 157.455 125.125 156.972 123.648 156.006C122.17 155.04 121.034 153.709 120.239 152.014C119.443 150.319 119.045 148.383 119.045 146.205C119.045 143.989 119.453 142.033 120.267 140.338C121.091 138.634 122.237 137.303 123.705 136.347C125.182 135.381 126.905 134.898 128.875 134.898C130.409 134.898 131.792 135.182 133.023 135.75C134.254 136.318 135.262 137.114 136.048 138.136C136.834 139.159 137.322 140.352 137.511 141.716H134.159C133.903 140.722 133.335 139.841 132.455 139.074C131.583 138.297 130.409 137.909 128.932 137.909C127.625 137.909 126.479 138.25 125.494 138.932C124.519 139.604 123.757 140.556 123.207 141.787C122.668 143.009 122.398 144.443 122.398 146.091C122.398 147.777 122.663 149.244 123.193 150.494C123.733 151.744 124.491 152.715 125.466 153.406C126.451 154.098 127.606 154.443 128.932 154.443C129.803 154.443 130.594 154.292 131.304 153.989C132.014 153.686 132.616 153.25 133.108 152.682C133.6 152.114 133.951 151.432 134.159 150.636H137.511C137.322 151.924 136.853 153.084 136.105 154.116C135.366 155.139 134.386 155.954 133.165 156.56C131.953 157.156 130.542 157.455 128.932 157.455ZM151.276 157.455C149.306 157.455 147.578 156.986 146.091 156.048C144.614 155.111 143.458 153.799 142.625 152.114C141.801 150.428 141.389 148.458 141.389 146.205C141.389 143.932 141.801 141.948 142.625 140.253C143.458 138.558 144.614 137.241 146.091 136.304C147.578 135.366 149.306 134.898 151.276 134.898C153.245 134.898 154.969 135.366 156.446 136.304C157.933 137.241 159.088 138.558 159.912 140.253C160.745 141.948 161.162 143.932 161.162 146.205C161.162 148.458 160.745 150.428 159.912 152.114C159.088 153.799 157.933 155.111 156.446 156.048C154.969 156.986 153.245 157.455 151.276 157.455ZM151.276 154.443C152.772 154.443 154.003 154.06 154.969 153.293C155.935 152.526 156.65 151.517 157.114 150.267C157.578 149.017 157.81 147.663 157.81 146.205C157.81 144.746 157.578 143.387 157.114 142.128C156.65 140.868 155.935 139.85 154.969 139.074C154.003 138.297 152.772 137.909 151.276 137.909C149.779 137.909 148.548 138.297 147.582 139.074C146.616 139.85 145.902 140.868 145.438 142.128C144.973 143.387 144.741 144.746 144.741 146.205C144.741 147.663 144.973 149.017 145.438 150.267C145.902 151.517 146.616 152.526 147.582 153.293C148.548 154.06 149.779 154.443 151.276 154.443ZM169.631 143.875V157H166.279V135.182H169.518V138.591H169.802C170.313 137.483 171.09 136.593 172.131 135.92C173.173 135.239 174.518 134.898 176.165 134.898C177.643 134.898 178.935 135.201 180.043 135.807C181.151 136.403 182.013 137.312 182.629 138.534C183.244 139.746 183.552 141.28 183.552 143.136V157H180.2V143.364C180.2 141.65 179.754 140.314 178.864 139.358C177.974 138.392 176.753 137.909 175.2 137.909C174.129 137.909 173.173 138.141 172.33 138.605C171.497 139.069 170.839 139.746 170.356 140.636C169.873 141.527 169.631 142.606 169.631 143.875ZM205.132 140.068L202.121 140.92C201.931 140.419 201.652 139.931 201.283 139.457C200.923 138.974 200.43 138.577 199.805 138.264C199.18 137.952 198.38 137.795 197.405 137.795C196.07 137.795 194.957 138.103 194.067 138.719C193.186 139.325 192.746 140.097 192.746 141.034C192.746 141.867 193.049 142.526 193.655 143.009C194.261 143.491 195.208 143.894 196.496 144.216L199.734 145.011C201.685 145.485 203.139 146.209 204.095 147.185C205.052 148.151 205.53 149.396 205.53 150.92C205.53 152.17 205.17 153.288 204.45 154.273C203.74 155.258 202.746 156.034 201.467 156.602C200.189 157.17 198.702 157.455 197.007 157.455C194.782 157.455 192.94 156.972 191.482 156.006C190.023 155.04 189.1 153.629 188.712 151.773L191.893 150.977C192.196 152.152 192.769 153.032 193.612 153.619C194.464 154.206 195.577 154.5 196.95 154.5C198.513 154.5 199.753 154.169 200.672 153.506C201.6 152.833 202.064 152.028 202.064 151.091C202.064 150.333 201.799 149.699 201.268 149.188C200.738 148.667 199.924 148.278 198.825 148.023L195.189 147.17C193.191 146.697 191.723 145.963 190.786 144.969C189.857 143.965 189.393 142.71 189.393 141.205C189.393 139.973 189.739 138.884 190.43 137.938C191.131 136.991 192.083 136.247 193.286 135.707C194.498 135.168 195.871 134.898 197.405 134.898C199.564 134.898 201.259 135.371 202.49 136.318C203.731 137.265 204.611 138.515 205.132 140.068ZM220.065 135.182V138.023H208.758V135.182H220.065ZM212.053 129.955H215.406V150.75C215.406 151.697 215.543 152.407 215.817 152.881C216.102 153.345 216.461 153.657 216.897 153.818C217.342 153.97 217.811 154.045 218.303 154.045C218.673 154.045 218.976 154.027 219.212 153.989C219.449 153.941 219.638 153.903 219.781 153.875L220.462 156.886C220.235 156.972 219.918 157.057 219.511 157.142C219.103 157.237 218.587 157.284 217.962 157.284C217.015 157.284 216.087 157.08 215.178 156.673C214.279 156.266 213.531 155.646 212.934 154.812C212.347 153.979 212.053 152.928 212.053 151.659V129.955ZM236.812 157V127.909H240.335V140.864H255.846V127.909H259.369V157H255.846V143.989H240.335V157H236.812ZM274.83 157.455C272.861 157.455 271.132 156.986 269.646 156.048C268.168 155.111 267.013 153.799 266.18 152.114C265.356 150.428 264.944 148.458 264.944 146.205C264.944 143.932 265.356 141.948 266.18 140.253C267.013 138.558 268.168 137.241 269.646 136.304C271.132 135.366 272.861 134.898 274.83 134.898C276.8 134.898 278.523 135.366 280.001 136.304C281.487 137.241 282.643 138.558 283.467 140.253C284.3 141.948 284.717 143.932 284.717 146.205C284.717 148.458 284.3 150.428 283.467 152.114C282.643 153.799 281.487 155.111 280.001 156.048C278.523 156.986 276.8 157.455 274.83 157.455ZM274.83 154.443C276.326 154.443 277.558 154.06 278.523 153.293C279.489 152.526 280.204 151.517 280.668 150.267C281.132 149.017 281.364 147.663 281.364 146.205C281.364 144.746 281.132 143.387 280.668 142.128C280.204 140.868 279.489 139.85 278.523 139.074C277.558 138.297 276.326 137.909 274.83 137.909C273.334 137.909 272.103 138.297 271.137 139.074C270.171 139.85 269.456 140.868 268.992 142.128C268.528 143.387 268.296 144.746 268.296 146.205C268.296 147.663 268.528 149.017 268.992 150.267C269.456 151.517 270.171 152.526 271.137 153.293C272.103 154.06 273.334 154.443 274.83 154.443ZM289.834 157V135.182H293.072V138.591H293.357C293.811 137.426 294.545 136.522 295.558 135.878C296.571 135.224 297.788 134.898 299.209 134.898C300.648 134.898 301.846 135.224 302.803 135.878C303.768 136.522 304.521 137.426 305.061 138.591H305.288C305.847 137.464 306.685 136.569 307.803 135.906C308.92 135.234 310.26 134.898 311.822 134.898C313.773 134.898 315.369 135.509 316.609 136.73C317.85 137.942 318.47 139.831 318.47 142.398V157H315.118V142.398C315.118 140.788 314.678 139.637 313.797 138.946C312.916 138.255 311.879 137.909 310.686 137.909C309.152 137.909 307.964 138.373 307.121 139.301C306.278 140.22 305.857 141.384 305.857 142.795V157H302.447V142.057C302.447 140.816 302.045 139.817 301.24 139.06C300.435 138.293 299.398 137.909 298.129 137.909C297.258 137.909 296.444 138.141 295.686 138.605C294.938 139.069 294.332 139.713 293.868 140.537C293.413 141.351 293.186 142.294 293.186 143.364V157H289.834ZM333.747 157.455C331.645 157.455 329.831 156.991 328.307 156.062C326.792 155.125 325.622 153.818 324.798 152.142C323.984 150.456 323.577 148.496 323.577 146.261C323.577 144.027 323.984 142.057 324.798 140.352C325.622 138.638 326.768 137.303 328.236 136.347C329.713 135.381 331.437 134.898 333.406 134.898C334.543 134.898 335.665 135.087 336.773 135.466C337.881 135.845 338.889 136.46 339.798 137.312C340.707 138.155 341.432 139.273 341.972 140.665C342.511 142.057 342.781 143.771 342.781 145.807V147.227H325.963V144.33H339.372C339.372 143.098 339.126 142 338.634 141.034C338.151 140.068 337.459 139.306 336.56 138.747C335.67 138.188 334.618 137.909 333.406 137.909C332.071 137.909 330.916 138.241 329.94 138.903C328.974 139.557 328.231 140.409 327.71 141.46C327.189 142.511 326.929 143.638 326.929 144.841V146.773C326.929 148.42 327.213 149.817 327.781 150.963C328.359 152.099 329.159 152.966 330.182 153.562C331.205 154.15 332.393 154.443 333.747 154.443C334.628 154.443 335.423 154.32 336.134 154.074C336.853 153.818 337.473 153.439 337.994 152.938C338.515 152.426 338.918 151.792 339.202 151.034L342.44 151.943C342.099 153.042 341.527 154.008 340.722 154.841C339.917 155.665 338.922 156.309 337.739 156.773C336.555 157.227 335.224 157.455 333.747 157.455ZM360.494 142.966V139.898H377.994V142.966H360.494ZM360.494 151.375V148.307H377.994V151.375H360.494ZM397.941 144.727C397.941 141.148 398.405 137.857 399.333 134.855C400.271 131.844 401.606 129.074 403.339 126.545H406.293C405.612 127.483 404.972 128.638 404.376 130.011C403.789 131.375 403.272 132.876 402.827 134.514C402.382 136.143 402.032 137.829 401.776 139.571C401.53 141.313 401.407 143.032 401.407 144.727C401.407 146.981 401.625 149.268 402.06 151.588C402.496 153.908 403.083 156.062 403.822 158.051C404.56 160.04 405.384 161.659 406.293 162.909H403.339C401.606 160.381 400.271 157.616 399.333 154.614C398.405 151.602 397.941 148.307 397.941 144.727ZM409.649 144.784V143.023C411.231 143.023 412.334 142.691 412.959 142.028C413.593 141.366 413.911 140.258 413.911 138.705V134.159C413.911 132.852 414.034 131.721 414.28 130.764C414.536 129.808 414.947 129.017 415.516 128.392C416.084 127.767 416.841 127.303 417.788 127C418.735 126.697 419.905 126.545 421.297 126.545V129.33C420.198 129.33 419.332 129.5 418.697 129.841C418.072 130.182 417.627 130.712 417.362 131.432C417.107 132.142 416.979 133.051 416.979 134.159V139.841C416.979 140.58 416.879 141.252 416.68 141.858C416.491 142.464 416.136 142.985 415.615 143.42C415.094 143.856 414.351 144.192 413.385 144.429C412.429 144.666 411.183 144.784 409.649 144.784ZM421.297 162.909C419.905 162.909 418.735 162.758 417.788 162.455C416.841 162.152 416.084 161.688 415.516 161.062C414.947 160.438 414.536 159.647 414.28 158.69C414.034 157.734 413.911 156.602 413.911 155.295V150.75C413.911 149.197 413.593 148.089 412.959 147.426C412.334 146.763 411.231 146.432 409.649 146.432V144.67C411.183 144.67 412.429 144.789 413.385 145.026C414.351 145.262 415.094 145.598 415.615 146.034C416.136 146.47 416.491 146.991 416.68 147.597C416.879 148.203 416.979 148.875 416.979 149.614V155.295C416.979 156.403 417.107 157.313 417.362 158.023C417.627 158.733 418.072 159.259 418.697 159.599C419.332 159.95 420.198 160.125 421.297 160.125V162.909ZM409.649 146.432V143.023H413.001V146.432H409.649ZM433.502 157.455C431.684 157.455 430.079 156.995 428.687 156.077C427.295 155.149 426.206 153.842 425.42 152.156C424.634 150.461 424.241 148.458 424.241 146.148C424.241 143.856 424.634 141.867 425.42 140.182C426.206 138.496 427.299 137.194 428.701 136.276C430.103 135.357 431.722 134.898 433.559 134.898C434.979 134.898 436.102 135.134 436.925 135.608C437.759 136.072 438.393 136.602 438.829 137.199C439.274 137.786 439.62 138.269 439.866 138.648H440.15V127.909H443.502V157H440.263V153.648H439.866C439.62 154.045 439.269 154.547 438.815 155.153C438.36 155.75 437.711 156.285 436.869 156.759C436.026 157.223 434.904 157.455 433.502 157.455ZM433.957 154.443C435.301 154.443 436.438 154.093 437.366 153.392C438.294 152.682 438.999 151.702 439.482 150.452C439.965 149.192 440.207 147.739 440.207 146.091C440.207 144.462 439.97 143.037 439.496 141.815C439.023 140.584 438.322 139.628 437.394 138.946C436.466 138.255 435.32 137.909 433.957 137.909C432.536 137.909 431.353 138.274 430.406 139.003C429.468 139.723 428.763 140.703 428.289 141.943C427.825 143.174 427.593 144.557 427.593 146.091C427.593 147.644 427.83 149.055 428.303 150.324C428.786 151.583 429.496 152.587 430.434 153.335C431.381 154.074 432.555 154.443 433.957 154.443ZM456.528 157.511C455.145 157.511 453.89 157.251 452.763 156.73C451.637 156.2 450.742 155.438 450.079 154.443C449.416 153.439 449.085 152.227 449.085 150.807C449.085 149.557 449.331 148.544 449.823 147.767C450.316 146.981 450.974 146.366 451.798 145.92C452.621 145.475 453.531 145.144 454.525 144.926C455.529 144.699 456.537 144.519 457.55 144.386C458.876 144.216 459.951 144.088 460.775 144.003C461.608 143.908 462.214 143.752 462.593 143.534C462.981 143.316 463.175 142.937 463.175 142.398V142.284C463.175 140.883 462.792 139.794 462.025 139.017C461.267 138.241 460.117 137.852 458.573 137.852C456.973 137.852 455.718 138.203 454.809 138.903C453.9 139.604 453.261 140.352 452.891 141.148L449.71 140.011C450.278 138.686 451.035 137.653 451.982 136.915C452.939 136.167 453.98 135.646 455.107 135.352C456.244 135.049 457.361 134.898 458.46 134.898C459.16 134.898 459.965 134.983 460.874 135.153C461.793 135.314 462.678 135.651 463.531 136.162C464.392 136.673 465.107 137.445 465.675 138.477C466.244 139.509 466.528 140.892 466.528 142.625V157H463.175V154.045H463.005C462.778 154.519 462.399 155.026 461.869 155.565C461.338 156.105 460.633 156.564 459.752 156.943C458.871 157.322 457.797 157.511 456.528 157.511ZM457.039 154.5C458.365 154.5 459.482 154.24 460.391 153.719C461.31 153.198 462.001 152.526 462.465 151.702C462.939 150.878 463.175 150.011 463.175 149.102V146.034C463.033 146.205 462.721 146.361 462.238 146.503C461.764 146.635 461.215 146.754 460.59 146.858C459.975 146.953 459.373 147.038 458.786 147.114C458.209 147.18 457.74 147.237 457.38 147.284C456.509 147.398 455.694 147.582 454.937 147.838C454.189 148.084 453.583 148.458 453.119 148.96C452.664 149.453 452.437 150.125 452.437 150.977C452.437 152.142 452.868 153.023 453.729 153.619C454.601 154.206 455.704 154.5 457.039 154.5ZM482.135 135.182V138.023H470.828V135.182H482.135ZM474.124 129.955H477.476V150.75C477.476 151.697 477.613 152.407 477.888 152.881C478.172 153.345 478.532 153.657 478.967 153.818C479.412 153.97 479.881 154.045 480.374 154.045C480.743 154.045 481.046 154.027 481.283 153.989C481.519 153.941 481.709 153.903 481.851 153.875L482.533 156.886C482.305 156.972 481.988 157.057 481.581 157.142C481.174 157.237 480.658 157.284 480.033 157.284C479.086 157.284 478.158 157.08 477.249 156.673C476.349 156.266 475.601 155.646 475.004 154.812C474.417 153.979 474.124 152.928 474.124 151.659V129.955ZM493.598 157.511C492.215 157.511 490.961 157.251 489.834 156.73C488.707 156.2 487.812 155.438 487.149 154.443C486.486 153.439 486.155 152.227 486.155 150.807C486.155 149.557 486.401 148.544 486.893 147.767C487.386 146.981 488.044 146.366 488.868 145.92C489.692 145.475 490.601 145.144 491.595 144.926C492.599 144.699 493.607 144.519 494.621 144.386C495.946 144.216 497.021 144.088 497.845 144.003C498.679 143.908 499.285 143.752 499.663 143.534C500.052 143.316 500.246 142.937 500.246 142.398V142.284C500.246 140.883 499.862 139.794 499.095 139.017C498.338 138.241 497.187 137.852 495.643 137.852C494.043 137.852 492.788 138.203 491.879 138.903C490.97 139.604 490.331 140.352 489.962 141.148L486.78 140.011C487.348 138.686 488.106 137.653 489.053 136.915C490.009 136.167 491.051 135.646 492.178 135.352C493.314 135.049 494.431 134.898 495.53 134.898C496.231 134.898 497.036 134.983 497.945 135.153C498.863 135.314 499.749 135.651 500.601 136.162C501.463 136.673 502.178 137.445 502.746 138.477C503.314 139.509 503.598 140.892 503.598 142.625V157H500.246V154.045H500.075C499.848 154.519 499.469 155.026 498.939 155.565C498.409 156.105 497.703 156.564 496.822 156.943C495.942 157.322 494.867 157.511 493.598 157.511ZM494.109 154.5C495.435 154.5 496.553 154.24 497.462 153.719C498.38 153.198 499.071 152.526 499.536 151.702C500.009 150.878 500.246 150.011 500.246 149.102V146.034C500.104 146.205 499.791 146.361 499.308 146.503C498.835 146.635 498.286 146.754 497.661 146.858C497.045 146.953 496.444 147.038 495.857 147.114C495.279 147.18 494.81 147.237 494.45 147.284C493.579 147.398 492.765 147.582 492.007 147.838C491.259 148.084 490.653 148.458 490.189 148.96C489.734 149.453 489.507 150.125 489.507 150.977C489.507 152.142 489.938 153.023 490.8 153.619C491.671 154.206 492.774 154.5 494.109 154.5ZM519.66 144.67V146.432C518.078 146.432 516.97 146.763 516.336 147.426C515.711 148.089 515.398 149.197 515.398 150.75V155.295C515.398 156.602 515.271 157.734 515.015 158.69C514.769 159.647 514.362 160.438 513.793 161.062C513.225 161.688 512.468 162.152 511.521 162.455C510.574 162.758 509.404 162.909 508.012 162.909V160.125C509.111 160.125 509.972 159.95 510.597 159.599C511.232 159.259 511.677 158.733 511.933 158.023C512.198 157.313 512.33 156.403 512.33 155.295V149.614C512.33 148.875 512.425 148.203 512.614 147.597C512.813 146.991 513.173 146.47 513.694 146.034C514.215 145.598 514.953 145.262 515.91 145.026C516.876 144.789 518.126 144.67 519.66 144.67ZM508.012 126.545C509.404 126.545 510.574 126.697 511.521 127C512.468 127.303 513.225 127.767 513.793 128.392C514.362 129.017 514.769 129.808 515.015 130.764C515.271 131.721 515.398 132.852 515.398 134.159V138.705C515.398 140.258 515.711 141.366 516.336 142.028C516.97 142.691 518.078 143.023 519.66 143.023V144.784C518.126 144.784 516.876 144.666 515.91 144.429C514.953 144.192 514.215 143.856 513.694 143.42C513.173 142.985 512.813 142.464 512.614 141.858C512.425 141.252 512.33 140.58 512.33 139.841V134.159C512.33 133.051 512.198 132.142 511.933 131.432C511.677 130.712 511.232 130.182 510.597 129.841C509.972 129.5 509.111 129.33 508.012 129.33V126.545ZM519.66 143.023V146.432H516.308V143.023H519.66ZM531.368 144.727C531.368 148.307 530.899 151.602 529.962 154.614C529.034 157.616 527.703 160.381 525.97 162.909H523.016C523.697 161.972 524.332 160.816 524.919 159.443C525.516 158.08 526.036 156.583 526.482 154.955C526.927 153.316 527.272 151.626 527.518 149.884C527.774 148.132 527.902 146.413 527.902 144.727C527.902 142.473 527.684 140.187 527.249 137.866C526.813 135.546 526.226 133.392 525.487 131.403C524.749 129.415 523.925 127.795 523.016 126.545H525.97C527.703 129.074 529.034 131.844 529.962 134.855C530.899 137.857 531.368 141.148 531.368 144.727ZM568.388 157L566.201 154.841L576.769 144.273L566.201 133.733L568.388 131.545L581.116 144.273L568.388 157ZM551.883 149.216V146.091H577.195L574.07 149.216H551.883ZM551.883 142.455V139.33H574.07L577.195 142.455H551.883ZM597.774 144.784V143.023C599.356 143.023 600.459 142.691 601.084 142.028C601.718 141.366 602.036 140.258 602.036 138.705V134.159C602.036 132.852 602.159 131.721 602.405 130.764C602.661 129.808 603.072 129.017 603.641 128.392C604.209 127.767 604.966 127.303 605.913 127C606.86 126.697 608.03 126.545 609.422 126.545V129.33C608.323 129.33 607.457 129.5 606.822 129.841C606.197 130.182 605.752 130.712 605.487 131.432C605.232 132.142 605.104 133.051 605.104 134.159V139.841C605.104 140.58 605.004 141.252 604.805 141.858C604.616 142.464 604.261 142.985 603.74 143.42C603.219 143.856 602.476 144.192 601.51 144.429C600.554 144.666 599.308 144.784 597.774 144.784ZM609.422 162.909C608.03 162.909 606.86 162.758 605.913 162.455C604.966 162.152 604.209 161.688 603.641 161.062C603.072 160.438 602.661 159.647 602.405 158.69C602.159 157.734 602.036 156.602 602.036 155.295V150.75C602.036 149.197 601.718 148.089 601.084 147.426C600.459 146.763 599.356 146.432 597.774 146.432V144.67C599.308 144.67 600.554 144.789 601.51 145.026C602.476 145.262 603.219 145.598 603.74 146.034C604.261 146.47 604.616 146.991 604.805 147.597C605.004 148.203 605.104 148.875 605.104 149.614V155.295C605.104 156.403 605.232 157.313 605.487 158.023C605.752 158.733 606.197 159.259 606.822 159.599C607.457 159.95 608.323 160.125 609.422 160.125V162.909ZM597.774 146.432V143.023H601.126V146.432H597.774ZM165.068 205V183.182H168.307V186.477H168.534C168.932 185.398 169.652 184.522 170.693 183.849C171.735 183.177 172.909 182.841 174.216 182.841C174.462 182.841 174.77 182.846 175.139 182.855C175.509 182.865 175.788 182.879 175.977 182.898V186.307C175.864 186.278 175.603 186.236 175.196 186.179C174.798 186.113 174.377 186.08 173.932 186.08C172.871 186.08 171.924 186.302 171.091 186.747C170.267 187.183 169.614 187.789 169.131 188.565C168.657 189.332 168.42 190.208 168.42 191.193V205H165.068ZM188.435 205.455C186.332 205.455 184.519 204.991 182.994 204.062C181.479 203.125 180.31 201.818 179.486 200.142C178.671 198.456 178.264 196.496 178.264 194.261C178.264 192.027 178.671 190.057 179.486 188.352C180.31 186.638 181.455 185.303 182.923 184.347C184.401 183.381 186.124 182.898 188.094 182.898C189.23 182.898 190.352 183.087 191.46 183.466C192.568 183.845 193.577 184.46 194.486 185.312C195.395 186.155 196.119 187.273 196.659 188.665C197.199 190.057 197.469 191.771 197.469 193.807V195.227H180.651V192.33H194.06C194.06 191.098 193.813 190 193.321 189.034C192.838 188.068 192.147 187.306 191.247 186.747C190.357 186.188 189.306 185.909 188.094 185.909C186.759 185.909 185.603 186.241 184.628 186.903C183.662 187.557 182.919 188.409 182.398 189.46C181.877 190.511 181.616 191.638 181.616 192.841V194.773C181.616 196.42 181.901 197.817 182.469 198.963C183.046 200.099 183.847 200.966 184.869 201.562C185.892 202.15 187.08 202.443 188.435 202.443C189.315 202.443 190.111 202.32 190.821 202.074C191.541 201.818 192.161 201.439 192.682 200.938C193.203 200.426 193.605 199.792 193.889 199.034L197.128 199.943C196.787 201.042 196.214 202.008 195.409 202.841C194.604 203.665 193.61 204.309 192.426 204.773C191.242 205.227 189.912 205.455 188.435 205.455ZM212.057 183.182V186.023H200.75V183.182H212.057ZM204.045 177.955H207.398V198.75C207.398 199.697 207.535 200.407 207.81 200.881C208.094 201.345 208.454 201.657 208.889 201.818C209.334 201.97 209.803 202.045 210.295 202.045C210.665 202.045 210.968 202.027 211.205 201.989C211.441 201.941 211.631 201.903 211.773 201.875L212.455 204.886C212.227 204.972 211.91 205.057 211.503 205.142C211.096 205.237 210.58 205.284 209.955 205.284C209.008 205.284 208.08 205.08 207.17 204.673C206.271 204.266 205.523 203.646 204.926 202.812C204.339 201.979 204.045 200.928 204.045 199.659V177.955ZM230.849 196.08V183.182H234.202V205H230.849V201.307H230.622C230.111 202.415 229.315 203.357 228.236 204.134C227.156 204.901 225.793 205.284 224.145 205.284C222.781 205.284 221.569 204.986 220.509 204.389C219.448 203.783 218.615 202.874 218.009 201.662C217.402 200.44 217.099 198.902 217.099 197.045V183.182H220.452V196.818C220.452 198.409 220.897 199.678 221.787 200.625C222.687 201.572 223.832 202.045 225.224 202.045C226.058 202.045 226.905 201.832 227.767 201.406C228.638 200.98 229.367 200.327 229.955 199.446C230.551 198.565 230.849 197.443 230.849 196.08ZM240.342 205V183.182H243.58V186.477H243.808C244.205 185.398 244.925 184.522 245.967 183.849C247.008 183.177 248.183 182.841 249.489 182.841C249.736 182.841 250.043 182.846 250.413 182.855C250.782 182.865 251.061 182.879 251.251 182.898V186.307C251.137 186.278 250.877 186.236 250.469 186.179C250.072 186.113 249.65 186.08 249.205 186.08C248.145 186.08 247.198 186.302 246.364 186.747C245.54 187.183 244.887 187.789 244.404 188.565C243.931 189.332 243.694 190.208 243.694 191.193V205H240.342ZM258.577 191.875V205H255.224V183.182H258.463V186.591H258.747C259.259 185.483 260.035 184.593 261.077 183.92C262.118 183.239 263.463 182.898 265.111 182.898C266.588 182.898 267.881 183.201 268.989 183.807C270.097 184.403 270.958 185.312 271.574 186.534C272.189 187.746 272.497 189.28 272.497 191.136V205H269.145V191.364C269.145 189.65 268.7 188.314 267.81 187.358C266.92 186.392 265.698 185.909 264.145 185.909C263.075 185.909 262.118 186.141 261.276 186.605C260.442 187.069 259.784 187.746 259.301 188.636C258.818 189.527 258.577 190.606 258.577 191.875ZM291.066 192.727C291.066 189.148 291.53 185.857 292.458 182.855C293.396 179.844 294.731 177.074 296.464 174.545H299.418C298.737 175.483 298.097 176.638 297.501 178.011C296.914 179.375 296.397 180.876 295.952 182.514C295.507 184.143 295.157 185.829 294.901 187.571C294.655 189.313 294.532 191.032 294.532 192.727C294.532 194.981 294.75 197.268 295.185 199.588C295.621 201.908 296.208 204.062 296.947 206.051C297.685 208.04 298.509 209.659 299.418 210.909H296.464C294.731 208.381 293.396 205.616 292.458 202.614C291.53 199.602 291.066 196.307 291.066 192.727ZM211.034 242.773V240.5L229.33 231.182V234.818L215.295 241.58L215.409 241.352V241.92L215.295 241.693L229.33 248.455V252.091L211.034 242.773ZM255.697 242.773L237.401 252.091V248.455L251.435 241.693L251.322 241.92V241.352L251.435 241.58L237.401 234.818V231.182L255.697 240.5V242.773ZM256.034 288.045V285.773L274.33 276.455V280.091L260.295 286.852L260.409 286.625V287.193L260.295 286.966L274.33 293.727V297.364L256.034 288.045ZM513.271 309.182V279.182H516.51V282.648H516.908C517.154 282.269 517.495 281.786 517.93 281.199C518.375 280.602 519.01 280.072 519.834 279.608C520.667 279.134 521.794 278.898 523.214 278.898C525.052 278.898 526.671 279.357 528.072 280.276C529.474 281.194 530.568 282.496 531.354 284.182C532.14 285.867 532.533 287.856 532.533 290.148C532.533 292.458 532.14 294.461 531.354 296.156C530.568 297.842 529.479 299.149 528.087 300.077C526.695 300.995 525.089 301.455 523.271 301.455C521.87 301.455 520.748 301.223 519.905 300.759C519.062 300.285 518.413 299.75 517.959 299.153C517.504 298.547 517.154 298.045 516.908 297.648H516.624V309.182H513.271ZM516.567 290.091C516.567 291.739 516.808 293.192 517.291 294.452C517.774 295.702 518.48 296.682 519.408 297.392C520.336 298.093 521.472 298.443 522.817 298.443C524.218 298.443 525.388 298.074 526.325 297.335C527.272 296.587 527.982 295.583 528.456 294.324C528.939 293.055 529.18 291.644 529.18 290.091C529.18 288.557 528.944 287.174 528.47 285.943C528.006 284.703 527.301 283.723 526.354 283.003C525.416 282.274 524.237 281.909 522.817 281.909C521.453 281.909 520.307 282.255 519.379 282.946C518.451 283.628 517.75 284.584 517.277 285.815C516.804 287.037 516.567 288.462 516.567 290.091ZM537.646 301V279.182H540.885V282.477H541.112C541.51 281.398 542.23 280.522 543.271 279.849C544.313 279.177 545.487 278.841 546.794 278.841C547.04 278.841 547.348 278.846 547.717 278.855C548.087 278.865 548.366 278.879 548.555 278.898V282.307C548.442 282.278 548.181 282.236 547.774 282.179C547.376 282.113 546.955 282.08 546.51 282.08C545.449 282.08 544.502 282.302 543.669 282.747C542.845 283.183 542.192 283.789 541.709 284.565C541.235 285.332 540.999 286.208 540.999 287.193V301H537.646ZM560.729 301.455C558.759 301.455 557.031 300.986 555.544 300.048C554.067 299.111 552.911 297.799 552.078 296.114C551.254 294.428 550.842 292.458 550.842 290.205C550.842 287.932 551.254 285.948 552.078 284.253C552.911 282.558 554.067 281.241 555.544 280.304C557.031 279.366 558.759 278.898 560.729 278.898C562.698 278.898 564.422 279.366 565.899 280.304C567.386 281.241 568.541 282.558 569.365 284.253C570.198 285.948 570.615 287.932 570.615 290.205C570.615 292.458 570.198 294.428 569.365 296.114C568.541 297.799 567.386 299.111 565.899 300.048C564.422 300.986 562.698 301.455 560.729 301.455ZM560.729 298.443C562.225 298.443 563.456 298.06 564.422 297.293C565.388 296.526 566.103 295.517 566.567 294.267C567.031 293.017 567.263 291.663 567.263 290.205C567.263 288.746 567.031 287.387 566.567 286.128C566.103 284.868 565.388 283.85 564.422 283.074C563.456 282.297 562.225 281.909 560.729 281.909C559.232 281.909 558.001 282.297 557.036 283.074C556.07 283.85 555.355 284.868 554.891 286.128C554.427 287.387 554.195 288.746 554.195 290.205C554.195 291.663 554.427 293.017 554.891 294.267C555.355 295.517 556.07 296.526 557.036 297.293C558.001 298.06 559.232 298.443 560.729 298.443ZM575.732 309.182V279.182H578.971V282.648H579.369C579.615 282.269 579.956 281.786 580.391 281.199C580.836 280.602 581.471 280.072 582.295 279.608C583.128 279.134 584.255 278.898 585.675 278.898C587.513 278.898 589.132 279.357 590.533 280.276C591.935 281.194 593.029 282.496 593.815 284.182C594.601 285.867 594.994 287.856 594.994 290.148C594.994 292.458 594.601 294.461 593.815 296.156C593.029 297.842 591.94 299.149 590.548 300.077C589.156 300.995 587.55 301.455 585.732 301.455C584.331 301.455 583.209 301.223 582.366 300.759C581.523 300.285 580.874 299.75 580.42 299.153C579.965 298.547 579.615 298.045 579.369 297.648H579.085V309.182H575.732ZM579.028 290.091C579.028 291.739 579.269 293.192 579.752 294.452C580.235 295.702 580.941 296.682 581.869 297.392C582.797 298.093 583.933 298.443 585.278 298.443C586.679 298.443 587.849 298.074 588.786 297.335C589.733 296.587 590.443 295.583 590.917 294.324C591.4 293.055 591.641 291.644 591.641 290.091C591.641 288.557 591.405 287.174 590.931 285.943C590.467 284.703 589.762 283.723 588.815 283.003C587.877 282.274 586.698 281.909 585.278 281.909C583.914 281.909 582.768 282.255 581.84 282.946C580.912 283.628 580.211 284.584 579.738 285.815C579.264 287.037 579.028 288.462 579.028 290.091ZM615.562 284.068L612.55 284.92C612.361 284.419 612.082 283.931 611.712 283.457C611.353 282.974 610.86 282.577 610.235 282.264C609.61 281.952 608.81 281.795 607.835 281.795C606.499 281.795 605.387 282.103 604.496 282.719C603.616 283.325 603.175 284.097 603.175 285.034C603.175 285.867 603.478 286.526 604.085 287.009C604.691 287.491 605.638 287.894 606.925 288.216L610.164 289.011C612.115 289.485 613.568 290.209 614.525 291.185C615.481 292.151 615.96 293.396 615.96 294.92C615.96 296.17 615.6 297.288 614.88 298.273C614.17 299.258 613.175 300.034 611.897 300.602C610.619 301.17 609.132 301.455 607.437 301.455C605.211 301.455 603.37 300.972 601.911 300.006C600.453 299.04 599.53 297.629 599.141 295.773L602.323 294.977C602.626 296.152 603.199 297.032 604.042 297.619C604.894 298.206 606.007 298.5 607.38 298.5C608.942 298.5 610.183 298.169 611.102 297.506C612.03 296.833 612.494 296.028 612.494 295.091C612.494 294.333 612.228 293.699 611.698 293.188C611.168 292.667 610.353 292.278 609.255 292.023L605.619 291.17C603.621 290.697 602.153 289.963 601.215 288.969C600.287 287.965 599.823 286.71 599.823 285.205C599.823 283.973 600.169 282.884 600.86 281.938C601.561 280.991 602.513 280.247 603.715 279.707C604.927 279.168 606.3 278.898 607.835 278.898C609.994 278.898 611.689 279.371 612.92 280.318C614.16 281.265 615.041 282.515 615.562 284.068ZM622.369 286.966V283.898H639.869V286.966H622.369ZM622.369 295.375V292.307H639.869V295.375H622.369ZM645.782 288.784V287.023C647.363 287.023 648.467 286.691 649.092 286.028C649.726 285.366 650.043 284.258 650.043 282.705V278.159C650.043 276.852 650.166 275.721 650.413 274.764C650.668 273.808 651.08 273.017 651.648 272.392C652.217 271.767 652.974 271.303 653.921 271C654.868 270.697 656.038 270.545 657.43 270.545V273.33C656.331 273.33 655.465 273.5 654.83 273.841C654.205 274.182 653.76 274.712 653.495 275.432C653.239 276.142 653.112 277.051 653.112 278.159V283.841C653.112 284.58 653.012 285.252 652.813 285.858C652.624 286.464 652.269 286.985 651.748 287.42C651.227 287.856 650.484 288.192 649.518 288.429C648.561 288.666 647.316 288.784 645.782 288.784ZM657.43 306.909C656.038 306.909 654.868 306.758 653.921 306.455C652.974 306.152 652.217 305.688 651.648 305.062C651.08 304.438 650.668 303.647 650.413 302.69C650.166 301.734 650.043 300.602 650.043 299.295V294.75C650.043 293.197 649.726 292.089 649.092 291.426C648.467 290.763 647.363 290.432 645.782 290.432V288.67C647.316 288.67 648.561 288.789 649.518 289.026C650.484 289.262 651.227 289.598 651.748 290.034C652.269 290.47 652.624 290.991 652.813 291.597C653.012 292.203 653.112 292.875 653.112 293.614V299.295C653.112 300.403 653.239 301.313 653.495 302.023C653.76 302.733 654.205 303.259 654.83 303.599C655.465 303.95 656.331 304.125 657.43 304.125V306.909ZM645.782 290.432V287.023H649.134V290.432H645.782ZM669.635 301.455C667.817 301.455 666.212 300.995 664.82 300.077C663.428 299.149 662.339 297.842 661.553 296.156C660.767 294.461 660.374 292.458 660.374 290.148C660.374 287.856 660.767 285.867 661.553 284.182C662.339 282.496 663.432 281.194 664.834 280.276C666.235 279.357 667.855 278.898 669.692 278.898C671.112 278.898 672.234 279.134 673.058 279.608C673.892 280.072 674.526 280.602 674.962 281.199C675.407 281.786 675.752 282.269 675.999 282.648H676.283V271.909H679.635V301H676.396V297.648H675.999C675.752 298.045 675.402 298.547 674.947 299.153C674.493 299.75 673.844 300.285 673.001 300.759C672.159 301.223 671.036 301.455 669.635 301.455ZM670.089 298.443C671.434 298.443 672.571 298.093 673.499 297.392C674.427 296.682 675.132 295.702 675.615 294.452C676.098 293.192 676.339 291.739 676.339 290.091C676.339 288.462 676.103 287.037 675.629 285.815C675.156 284.584 674.455 283.628 673.527 282.946C672.599 282.255 671.453 281.909 670.089 281.909C668.669 281.909 667.485 282.274 666.538 283.003C665.601 283.723 664.895 284.703 664.422 285.943C663.958 287.174 663.726 288.557 663.726 290.091C663.726 291.644 663.963 293.055 664.436 294.324C664.919 295.583 665.629 296.587 666.567 297.335C667.514 298.074 668.688 298.443 670.089 298.443ZM692.661 301.511C691.278 301.511 690.023 301.251 688.896 300.73C687.769 300.2 686.875 299.438 686.212 298.443C685.549 297.439 685.217 296.227 685.217 294.807C685.217 293.557 685.464 292.544 685.956 291.767C686.448 290.981 687.107 290.366 687.93 289.92C688.754 289.475 689.663 289.144 690.658 288.926C691.661 288.699 692.67 288.519 693.683 288.386C695.009 288.216 696.084 288.088 696.908 288.003C697.741 287.908 698.347 287.752 698.726 287.534C699.114 287.316 699.308 286.937 699.308 286.398V286.284C699.308 284.883 698.925 283.794 698.158 283.017C697.4 282.241 696.25 281.852 694.706 281.852C693.106 281.852 691.851 282.203 690.942 282.903C690.033 283.604 689.393 284.352 689.024 285.148L685.842 284.011C686.411 282.686 687.168 281.653 688.115 280.915C689.071 280.167 690.113 279.646 691.24 279.352C692.376 279.049 693.494 278.898 694.592 278.898C695.293 278.898 696.098 278.983 697.007 279.153C697.926 279.314 698.811 279.651 699.663 280.162C700.525 280.673 701.24 281.445 701.808 282.477C702.376 283.509 702.661 284.892 702.661 286.625V301H699.308V298.045H699.138C698.911 298.519 698.532 299.026 698.001 299.565C697.471 300.105 696.766 300.564 695.885 300.943C695.004 301.322 693.929 301.511 692.661 301.511ZM693.172 298.5C694.498 298.5 695.615 298.24 696.524 297.719C697.443 297.198 698.134 296.526 698.598 295.702C699.071 294.878 699.308 294.011 699.308 293.102V290.034C699.166 290.205 698.854 290.361 698.371 290.503C697.897 290.635 697.348 290.754 696.723 290.858C696.107 290.953 695.506 291.038 694.919 291.114C694.341 291.18 693.873 291.237 693.513 291.284C692.642 291.398 691.827 291.582 691.07 291.838C690.321 292.084 689.715 292.458 689.251 292.96C688.797 293.453 688.57 294.125 688.57 294.977C688.57 296.142 689 297.023 689.862 297.619C690.733 298.206 691.837 298.5 693.172 298.5ZM718.268 279.182V282.023H706.961V279.182H718.268ZM710.256 273.955H713.609V294.75C713.609 295.697 713.746 296.407 714.021 296.881C714.305 297.345 714.665 297.657 715.1 297.818C715.545 297.97 716.014 298.045 716.506 298.045C716.876 298.045 717.179 298.027 717.415 297.989C717.652 297.941 717.842 297.903 717.984 297.875L718.665 300.886C718.438 300.972 718.121 301.057 717.714 301.142C717.307 301.237 716.79 301.284 716.165 301.284C715.219 301.284 714.29 301.08 713.381 300.673C712.482 300.266 711.734 299.646 711.137 298.812C710.55 297.979 710.256 296.928 710.256 295.659V273.955ZM729.731 301.511C728.348 301.511 727.094 301.251 725.967 300.73C724.84 300.2 723.945 299.438 723.282 298.443C722.619 297.439 722.288 296.227 722.288 294.807C722.288 293.557 722.534 292.544 723.026 291.767C723.519 290.981 724.177 290.366 725.001 289.92C725.825 289.475 726.734 289.144 727.728 288.926C728.732 288.699 729.74 288.519 730.754 288.386C732.079 288.216 733.154 288.088 733.978 288.003C734.811 287.908 735.417 287.752 735.796 287.534C736.184 287.316 736.379 286.937 736.379 286.398V286.284C736.379 284.883 735.995 283.794 735.228 283.017C734.47 282.241 733.32 281.852 731.776 281.852C730.176 281.852 728.921 282.203 728.012 282.903C727.103 283.604 726.464 284.352 726.094 285.148L722.913 284.011C723.481 282.686 724.238 281.653 725.185 280.915C726.142 280.167 727.183 279.646 728.31 279.352C729.447 279.049 730.564 278.898 731.663 278.898C732.363 278.898 733.168 278.983 734.077 279.153C734.996 279.314 735.881 279.651 736.734 280.162C737.595 280.673 738.31 281.445 738.879 282.477C739.447 283.509 739.731 284.892 739.731 286.625V301H736.379V298.045H736.208C735.981 298.519 735.602 299.026 735.072 299.565C734.541 300.105 733.836 300.564 732.955 300.943C732.075 301.322 731 301.511 729.731 301.511ZM730.242 298.5C731.568 298.5 732.685 298.24 733.594 297.719C734.513 297.198 735.204 296.526 735.668 295.702C736.142 294.878 736.379 294.011 736.379 293.102V290.034C736.237 290.205 735.924 290.361 735.441 290.503C734.968 290.635 734.418 290.754 733.793 290.858C733.178 290.953 732.576 291.038 731.989 291.114C731.412 291.18 730.943 291.237 730.583 291.284C729.712 291.398 728.897 291.582 728.14 291.838C727.392 292.084 726.786 292.458 726.322 292.96C725.867 293.453 725.64 294.125 725.64 294.977C725.64 296.142 726.071 297.023 726.933 297.619C727.804 298.206 728.907 298.5 730.242 298.5ZM755.793 288.67V290.432C754.211 290.432 753.103 290.763 752.469 291.426C751.844 292.089 751.531 293.197 751.531 294.75V299.295C751.531 300.602 751.403 301.734 751.148 302.69C750.902 303.647 750.494 304.438 749.926 305.062C749.358 305.688 748.6 306.152 747.653 306.455C746.706 306.758 745.537 306.909 744.145 306.909V304.125C745.243 304.125 746.105 303.95 746.73 303.599C747.365 303.259 747.81 302.733 748.065 302.023C748.33 301.313 748.463 300.403 748.463 299.295V293.614C748.463 292.875 748.558 292.203 748.747 291.597C748.946 290.991 749.306 290.47 749.827 290.034C750.348 289.598 751.086 289.262 752.043 289.026C753.009 288.789 754.259 288.67 755.793 288.67ZM744.145 270.545C745.537 270.545 746.706 270.697 747.653 271C748.6 271.303 749.358 271.767 749.926 272.392C750.494 273.017 750.902 273.808 751.148 274.764C751.403 275.721 751.531 276.852 751.531 278.159V282.705C751.531 284.258 751.844 285.366 752.469 286.028C753.103 286.691 754.211 287.023 755.793 287.023V288.784C754.259 288.784 753.009 288.666 752.043 288.429C751.086 288.192 750.348 287.856 749.827 287.42C749.306 286.985 748.946 286.464 748.747 285.858C748.558 285.252 748.463 284.58 748.463 283.841V278.159C748.463 277.051 748.33 276.142 748.065 275.432C747.81 274.712 747.365 274.182 746.73 273.841C746.105 273.5 745.243 273.33 744.145 273.33V270.545ZM755.793 287.023V290.432H752.44V287.023H755.793ZM770.626 270.545L761.251 305.375H758.183L767.558 270.545H770.626ZM793.861 290.773L775.565 300.091V296.455L789.599 289.693L789.486 289.92V289.352L789.599 289.58L775.565 282.818V279.182L793.861 288.5V290.773ZM211.034 338.773V336.5L229.33 327.182V330.818L215.295 337.58L215.409 337.352V337.92L215.295 337.693L229.33 344.455V348.091L211.034 338.773ZM246.719 318.545L237.344 353.375H234.276L243.651 318.545H246.719ZM269.955 338.773L251.659 348.091V344.455L265.693 337.693L265.58 337.92V337.352L265.693 337.58L251.659 330.818V327.182L269.955 336.5V338.773ZM172.227 384.727C172.227 388.307 171.759 391.602 170.821 394.614C169.893 397.616 168.563 400.381 166.83 402.909H163.875C164.557 401.972 165.191 400.816 165.778 399.443C166.375 398.08 166.896 396.583 167.341 394.955C167.786 393.316 168.132 391.626 168.378 389.884C168.634 388.132 168.761 386.413 168.761 384.727C168.761 382.473 168.544 380.187 168.108 377.866C167.672 375.546 167.085 373.392 166.347 371.403C165.608 369.415 164.784 367.795 163.875 366.545H166.83C168.563 369.074 169.893 371.844 170.821 374.855C171.759 377.857 172.227 381.148 172.227 384.727ZM130.011 432.67V434.432C128.43 434.432 127.322 434.763 126.688 435.426C126.062 436.089 125.75 437.197 125.75 438.75V443.295C125.75 444.602 125.622 445.734 125.366 446.69C125.12 447.647 124.713 448.438 124.145 449.062C123.577 449.688 122.819 450.152 121.872 450.455C120.925 450.758 119.756 450.909 118.364 450.909V448.125C119.462 448.125 120.324 447.95 120.949 447.599C121.583 447.259 122.028 446.733 122.284 446.023C122.549 445.313 122.682 444.403 122.682 443.295V437.614C122.682 436.875 122.777 436.203 122.966 435.597C123.165 434.991 123.525 434.47 124.045 434.034C124.566 433.598 125.305 433.262 126.261 433.026C127.227 432.789 128.477 432.67 130.011 432.67ZM118.364 414.545C119.756 414.545 120.925 414.697 121.872 415C122.819 415.303 123.577 415.767 124.145 416.392C124.713 417.017 125.12 417.808 125.366 418.764C125.622 419.721 125.75 420.852 125.75 422.159V426.705C125.75 428.258 126.062 429.366 126.688 430.028C127.322 430.691 128.43 431.023 130.011 431.023V432.784C128.477 432.784 127.227 432.666 126.261 432.429C125.305 432.192 124.566 431.856 124.045 431.42C123.525 430.985 123.165 430.464 122.966 429.858C122.777 429.252 122.682 428.58 122.682 427.841V422.159C122.682 421.051 122.549 420.142 122.284 419.432C122.028 418.712 121.583 418.182 120.949 417.841C120.324 417.5 119.462 417.33 118.364 417.33V414.545ZM130.011 431.023V434.432H126.659V431.023H130.011Z" fill="white"/>
<path d="M305.299 281H301.776C301.568 279.987 301.203 279.097 300.683 278.33C300.171 277.562 299.546 276.919 298.808 276.398C298.078 275.867 297.269 275.47 296.379 275.205C295.488 274.939 294.56 274.807 293.594 274.807C291.833 274.807 290.237 275.252 288.808 276.142C287.387 277.032 286.255 278.344 285.413 280.077C284.579 281.81 284.163 283.936 284.163 286.455C284.163 288.973 284.579 291.099 285.413 292.832C286.255 294.565 287.387 295.877 288.808 296.767C290.237 297.657 291.833 298.102 293.594 298.102C294.56 298.102 295.488 297.97 296.379 297.705C297.269 297.439 298.078 297.046 298.808 296.526C299.546 295.995 300.171 295.347 300.683 294.58C301.203 293.803 301.568 292.913 301.776 291.909H305.299C305.034 293.396 304.551 294.726 303.85 295.901C303.149 297.075 302.278 298.074 301.237 298.898C300.195 299.712 299.025 300.332 297.728 300.759C296.44 301.185 295.062 301.398 293.594 301.398C291.113 301.398 288.907 300.792 286.975 299.58C285.043 298.367 283.523 296.644 282.415 294.409C281.308 292.174 280.754 289.523 280.754 286.455C280.754 283.386 281.308 280.735 282.415 278.5C283.523 276.265 285.043 274.542 286.975 273.33C288.907 272.117 291.113 271.511 293.594 271.511C295.062 271.511 296.44 271.724 297.728 272.151C299.025 272.577 300.195 273.202 301.237 274.026C302.278 274.84 303.149 275.834 303.85 277.009C304.551 278.173 305.034 279.504 305.299 281ZM319.401 301.455C317.431 301.455 315.703 300.986 314.216 300.048C312.739 299.111 311.583 297.799 310.75 296.114C309.926 294.428 309.514 292.458 309.514 290.205C309.514 287.932 309.926 285.948 310.75 284.253C311.583 282.558 312.739 281.241 314.216 280.304C315.703 279.366 317.431 278.898 319.401 278.898C321.37 278.898 323.094 279.366 324.571 280.304C326.058 281.241 327.213 282.558 328.037 284.253C328.87 285.948 329.287 287.932 329.287 290.205C329.287 292.458 328.87 294.428 328.037 296.114C327.213 297.799 326.058 299.111 324.571 300.048C323.094 300.986 321.37 301.455 319.401 301.455ZM319.401 298.443C320.897 298.443 322.128 298.06 323.094 297.293C324.06 296.526 324.775 295.517 325.239 294.267C325.703 293.017 325.935 291.663 325.935 290.205C325.935 288.746 325.703 287.387 325.239 286.128C324.775 284.868 324.06 283.85 323.094 283.074C322.128 282.297 320.897 281.909 319.401 281.909C317.904 281.909 316.673 282.297 315.707 283.074C314.741 283.85 314.027 284.868 313.562 286.128C313.098 287.387 312.866 288.746 312.866 290.205C312.866 291.663 313.098 293.017 313.562 294.267C314.027 295.517 314.741 296.526 315.707 297.293C316.673 298.06 317.904 298.443 319.401 298.443ZM334.404 301V279.182H337.643V282.591H337.927C338.381 281.426 339.115 280.522 340.129 279.878C341.142 279.224 342.359 278.898 343.779 278.898C345.219 278.898 346.416 279.224 347.373 279.878C348.339 280.522 349.092 281.426 349.631 282.591H349.859C350.417 281.464 351.255 280.569 352.373 279.906C353.49 279.234 354.83 278.898 356.393 278.898C358.344 278.898 359.939 279.509 361.18 280.73C362.42 281.942 363.04 283.831 363.04 286.398V301H359.688V286.398C359.688 284.788 359.248 283.637 358.367 282.946C357.487 282.255 356.45 281.909 355.256 281.909C353.722 281.909 352.534 282.373 351.691 283.301C350.848 284.22 350.427 285.384 350.427 286.795V301H347.018V286.057C347.018 284.816 346.615 283.817 345.81 283.06C345.005 282.293 343.969 281.909 342.7 281.909C341.828 281.909 341.014 282.141 340.256 282.605C339.508 283.069 338.902 283.713 338.438 284.537C337.984 285.351 337.756 286.294 337.756 287.364V301H334.404ZM369.17 309.182V279.182H372.408V282.648H372.806C373.052 282.269 373.393 281.786 373.829 281.199C374.274 280.602 374.908 280.072 375.732 279.608C376.566 279.134 377.692 278.898 379.113 278.898C380.95 278.898 382.569 279.357 383.971 280.276C385.372 281.194 386.466 282.496 387.252 284.182C388.038 285.867 388.431 287.856 388.431 290.148C388.431 292.458 388.038 294.461 387.252 296.156C386.466 297.842 385.377 299.149 383.985 300.077C382.593 300.995 380.988 301.455 379.17 301.455C377.768 301.455 376.646 301.223 375.803 300.759C374.96 300.285 374.312 299.75 373.857 299.153C373.403 298.547 373.052 298.045 372.806 297.648H372.522V309.182H369.17ZM372.465 290.091C372.465 291.739 372.707 293.192 373.19 294.452C373.673 295.702 374.378 296.682 375.306 297.392C376.234 298.093 377.371 298.443 378.715 298.443C380.117 298.443 381.286 298.074 382.224 297.335C383.171 296.587 383.881 295.583 384.354 294.324C384.837 293.055 385.079 291.644 385.079 290.091C385.079 288.557 384.842 287.174 384.369 285.943C383.905 284.703 383.199 283.723 382.252 283.003C381.315 282.274 380.136 281.909 378.715 281.909C377.352 281.909 376.206 282.255 375.278 282.946C374.35 283.628 373.649 284.584 373.175 285.815C372.702 287.037 372.465 288.462 372.465 290.091ZM402.408 301.455C400.439 301.455 398.71 300.986 397.224 300.048C395.746 299.111 394.591 297.799 393.758 296.114C392.934 294.428 392.522 292.458 392.522 290.205C392.522 287.932 392.934 285.948 393.758 284.253C394.591 282.558 395.746 281.241 397.224 280.304C398.71 279.366 400.439 278.898 402.408 278.898C404.378 278.898 406.102 279.366 407.579 280.304C409.066 281.241 410.221 282.558 411.045 284.253C411.878 285.948 412.295 287.932 412.295 290.205C412.295 292.458 411.878 294.428 411.045 296.114C410.221 297.799 409.066 299.111 407.579 300.048C406.102 300.986 404.378 301.455 402.408 301.455ZM402.408 298.443C403.905 298.443 405.136 298.06 406.102 297.293C407.067 296.526 407.782 295.517 408.246 294.267C408.71 293.017 408.942 291.663 408.942 290.205C408.942 288.746 408.71 287.387 408.246 286.128C407.782 284.868 407.067 283.85 406.102 283.074C405.136 282.297 403.905 281.909 402.408 281.909C400.912 281.909 399.681 282.297 398.715 283.074C397.749 283.85 397.034 284.868 396.57 286.128C396.106 287.387 395.874 288.746 395.874 290.205C395.874 291.663 396.106 293.017 396.57 294.267C397.034 295.517 397.749 296.526 398.715 297.293C399.681 298.06 400.912 298.443 402.408 298.443ZM420.764 287.875V301H417.412V279.182H420.651V282.591H420.935C421.446 281.483 422.223 280.593 423.264 279.92C424.306 279.239 425.651 278.898 427.298 278.898C428.776 278.898 430.068 279.201 431.176 279.807C432.284 280.403 433.146 281.312 433.761 282.534C434.377 283.746 434.685 285.28 434.685 287.136V301H431.332V287.364C431.332 285.65 430.887 284.314 429.997 283.358C429.107 282.392 427.885 281.909 426.332 281.909C425.262 281.909 424.306 282.141 423.463 282.605C422.63 283.069 421.972 283.746 421.489 284.636C421.006 285.527 420.764 286.606 420.764 287.875ZM449.958 301.455C447.856 301.455 446.042 300.991 444.518 300.062C443.003 299.125 441.833 297.818 441.009 296.142C440.195 294.456 439.788 292.496 439.788 290.261C439.788 288.027 440.195 286.057 441.009 284.352C441.833 282.638 442.979 281.303 444.447 280.347C445.924 279.381 447.647 278.898 449.617 278.898C450.754 278.898 451.876 279.087 452.984 279.466C454.092 279.845 455.1 280.46 456.009 281.312C456.918 282.155 457.643 283.273 458.183 284.665C458.722 286.057 458.992 287.771 458.992 289.807V291.227H442.174V288.33H455.583C455.583 287.098 455.337 286 454.844 285.034C454.362 284.068 453.67 283.306 452.771 282.747C451.88 282.188 450.829 281.909 449.617 281.909C448.282 281.909 447.127 282.241 446.151 282.903C445.185 283.557 444.442 284.409 443.921 285.46C443.4 286.511 443.14 287.638 443.14 288.841V290.773C443.14 292.42 443.424 293.817 443.992 294.963C444.57 296.099 445.37 296.966 446.393 297.562C447.415 298.15 448.604 298.443 449.958 298.443C450.839 298.443 451.634 298.32 452.344 298.074C453.064 297.818 453.684 297.439 454.205 296.938C454.726 296.426 455.129 295.792 455.413 295.034L458.651 295.943C458.31 297.042 457.737 298.008 456.933 298.841C456.128 299.665 455.133 300.309 453.95 300.773C452.766 301.227 451.435 301.455 449.958 301.455ZM467.444 287.875V301H464.092V279.182H467.33V282.591H467.614C468.126 281.483 468.902 280.593 469.944 279.92C470.986 279.239 472.33 278.898 473.978 278.898C475.455 278.898 476.748 279.201 477.856 279.807C478.964 280.403 479.826 281.312 480.441 282.534C481.057 283.746 481.364 285.28 481.364 287.136V301H478.012V287.364C478.012 285.65 477.567 284.314 476.677 283.358C475.787 282.392 474.565 281.909 473.012 281.909C471.942 281.909 470.986 282.141 470.143 282.605C469.309 283.069 468.651 283.746 468.168 284.636C467.685 285.527 467.444 286.606 467.444 287.875ZM496.979 279.182V282.023H485.672V279.182H496.979ZM488.967 273.955H492.32V294.75C492.32 295.697 492.457 296.407 492.732 296.881C493.016 297.345 493.375 297.657 493.811 297.818C494.256 297.97 494.725 298.045 495.217 298.045C495.587 298.045 495.89 298.027 496.126 297.989C496.363 297.941 496.553 297.903 496.695 297.875L497.376 300.886C497.149 300.972 496.832 301.057 496.425 301.142C496.018 301.237 495.501 301.284 494.876 301.284C493.929 301.284 493.001 301.08 492.092 300.673C491.193 300.266 490.445 299.646 489.848 298.812C489.261 297.979 488.967 296.928 488.967 295.659V273.955Z" fill="#F53FA9"/>
<path d="M1 1H74V515H16C7.71573 515 1 508.284 1 500V1Z" fill="#1C1C1C"/>
<path d="M38.5909 133.727V157H35.7727V136.682H35.6364L29.9545 140.455V137.591L35.7727 133.727H38.5909ZM30.4091 206V203.955L38.0909 195.545C38.9924 194.561 39.7348 193.705 40.3182 192.977C40.9015 192.242 41.3333 191.553 41.6136 190.909C41.9015 190.258 42.0455 189.576 42.0455 188.864C42.0455 188.045 41.8485 187.337 41.4545 186.739C41.0682 186.14 40.5379 185.678 39.8636 185.352C39.1894 185.027 38.4318 184.864 37.5909 184.864C36.697 184.864 35.9167 185.049 35.25 185.42C34.5909 185.784 34.0795 186.295 33.7159 186.955C33.3598 187.614 33.1818 188.386 33.1818 189.273H30.5C30.5 187.909 30.8144 186.712 31.4432 185.682C32.072 184.652 32.928 183.848 34.0114 183.273C35.1023 182.697 36.3258 182.409 37.6818 182.409C39.0455 182.409 40.2538 182.697 41.3068 183.273C42.3598 183.848 43.1856 184.625 43.7841 185.602C44.3826 186.58 44.6818 187.667 44.6818 188.864C44.6818 189.72 44.5265 190.557 44.2159 191.375C43.9129 192.186 43.3826 193.091 42.625 194.091C41.875 195.083 40.8333 196.295 39.5 197.727L34.2727 203.318V203.5H45.0909V206H30.4091ZM38.2727 255.318C36.7727 255.318 35.4356 255.061 34.2614 254.545C33.0947 254.03 32.1667 253.314 31.4773 252.398C30.7955 251.473 30.4242 250.402 30.3636 249.182H33.2273C33.2879 249.932 33.5455 250.58 34 251.125C34.4545 251.663 35.0492 252.08 35.7841 252.375C36.5189 252.67 37.3333 252.818 38.2273 252.818C39.2273 252.818 40.1136 252.644 40.8864 252.295C41.6591 251.947 42.2652 251.462 42.7045 250.841C43.1439 250.22 43.3636 249.5 43.3636 248.682C43.3636 247.826 43.1515 247.072 42.7273 246.42C42.303 245.761 41.6818 245.246 40.8636 244.875C40.0455 244.504 39.0455 244.318 37.8636 244.318H36V241.818H37.8636C38.7879 241.818 39.5985 241.652 40.2955 241.318C41 240.985 41.5492 240.515 41.9432 239.909C42.3447 239.303 42.5455 238.591 42.5455 237.773C42.5455 236.985 42.3712 236.299 42.0227 235.716C41.6742 235.133 41.1818 234.678 40.5455 234.352C39.9167 234.027 39.1742 233.864 38.3182 233.864C37.5152 233.864 36.7576 234.011 36.0455 234.307C35.3409 234.595 34.7652 235.015 34.3182 235.568C33.8712 236.114 33.6288 236.773 33.5909 237.545H30.8636C30.9091 236.326 31.2765 235.258 31.9659 234.341C32.6553 233.417 33.5568 232.697 34.6705 232.182C35.7917 231.667 37.0227 231.409 38.3636 231.409C39.803 231.409 41.0379 231.701 42.0682 232.284C43.0985 232.86 43.8902 233.621 44.4432 234.568C44.9962 235.515 45.2727 236.538 45.2727 237.636C45.2727 238.947 44.928 240.064 44.2386 240.989C43.5568 241.913 42.6288 242.553 41.4545 242.909V243.091C42.9242 243.333 44.072 243.958 44.8977 244.966C45.7235 245.966 46.1364 247.205 46.1364 248.682C46.1364 249.947 45.7917 251.083 45.1023 252.091C44.4205 253.091 43.4886 253.879 42.3068 254.455C41.125 255.03 39.7803 255.318 38.2727 255.318ZM29.8636 299.227V296.909L40.0909 280.727H41.7727V284.318H40.6364L32.9091 296.545V296.727H46.6818V299.227H29.8636ZM40.8182 304V298.523V297.443V280.727H43.5V304H40.8182ZM37.6818 353.318C36.3485 353.318 35.1477 353.053 34.0795 352.523C33.0114 351.992 32.1553 351.265 31.5114 350.341C30.8674 349.417 30.5152 348.364 30.4545 347.182H33.1818C33.2879 348.235 33.7652 349.106 34.6136 349.795C35.4697 350.477 36.4924 350.818 37.6818 350.818C38.6364 350.818 39.4848 350.595 40.2273 350.148C40.9773 349.701 41.5644 349.087 41.9886 348.307C42.4205 347.519 42.6364 346.629 42.6364 345.636C42.6364 344.621 42.4129 343.716 41.9659 342.92C41.5265 342.117 40.9205 341.485 40.1477 341.023C39.375 340.561 38.4924 340.326 37.5 340.318C36.7879 340.311 36.0568 340.42 35.3068 340.648C34.5568 340.867 33.9394 341.152 33.4545 341.5L30.8182 341.182L32.2273 329.727H44.3182V332.227H34.5909L33.7727 339.091H33.9091C34.3864 338.712 34.9848 338.398 35.7045 338.148C36.4242 337.898 37.1742 337.773 37.9545 337.773C39.3788 337.773 40.6477 338.114 41.7614 338.795C42.8826 339.47 43.7614 340.394 44.3977 341.568C45.0417 342.742 45.3636 344.083 45.3636 345.591C45.3636 347.076 45.0303 348.402 44.3636 349.568C43.7045 350.727 42.7955 351.644 41.6364 352.318C40.4773 352.985 39.1591 353.318 37.6818 353.318ZM38.1364 402.318C37.1818 402.303 36.2273 402.121 35.2727 401.773C34.3182 401.424 33.447 400.837 32.6591 400.011C31.8712 399.178 31.2386 398.053 30.7614 396.636C30.2841 395.212 30.0455 393.424 30.0455 391.273C30.0455 389.212 30.2386 387.386 30.625 385.795C31.0114 384.197 31.572 382.852 32.3068 381.761C33.0417 380.663 33.928 379.83 34.9659 379.261C36.0114 378.693 37.1894 378.409 38.5 378.409C39.803 378.409 40.9621 378.67 41.9773 379.193C43 379.708 43.8333 380.428 44.4773 381.352C45.1212 382.277 45.5379 383.341 45.7273 384.545H42.9545C42.697 383.5 42.197 382.633 41.4545 381.943C40.7121 381.254 39.7273 380.909 38.5 380.909C36.697 380.909 35.2765 381.693 34.2386 383.261C33.2083 384.83 32.6894 387.03 32.6818 389.864H32.8636C33.2879 389.22 33.7917 388.67 34.375 388.216C34.9659 387.754 35.6174 387.398 36.3295 387.148C37.0417 386.898 37.7955 386.773 38.5909 386.773C39.9242 386.773 41.1439 387.106 42.25 387.773C43.3561 388.432 44.2424 389.345 44.9091 390.511C45.5758 391.67 45.9091 393 45.9091 394.5C45.9091 395.939 45.5871 397.258 44.9432 398.455C44.2992 399.644 43.3939 400.591 42.2273 401.295C41.0682 401.992 39.7045 402.333 38.1364 402.318ZM38.1364 399.818C39.0909 399.818 39.947 399.58 40.7045 399.102C41.4697 398.625 42.072 397.985 42.5114 397.182C42.9583 396.379 43.1818 395.485 43.1818 394.5C43.1818 393.538 42.9659 392.663 42.5341 391.875C42.1098 391.08 41.5227 390.447 40.7727 389.977C40.0303 389.508 39.1818 389.273 38.2273 389.273C37.5076 389.273 36.8371 389.417 36.2159 389.705C35.5947 389.985 35.0492 390.371 34.5795 390.864C34.1174 391.356 33.7538 391.92 33.4886 392.557C33.2235 393.186 33.0909 393.848 33.0909 394.545C33.0909 395.47 33.3068 396.333 33.7386 397.136C34.178 397.939 34.7765 398.587 35.5341 399.08C36.2992 399.572 37.1667 399.818 38.1364 399.818ZM31.1364 451L41.5455 430.409V430.227H29.5455V427.727H44.4545V430.364L34.0909 451H31.1364Z" fill="#949494"/>
<mask id="path-7-inside-1_66_41" fill="white">
<path d="M1 16C1 7.71573 7.71573 1 16 1H875C883.284 1 890 7.71573 890 16V57H1V16Z"/>
</mask>
<path d="M1 16C1 7.71573 7.71573 1 16 1H875C883.284 1 890 7.71573 890 16V57H1V16Z" fill="#0B0C0C"/>
<path d="M1 1H890H1ZM890 58H1V56H890V58ZM1 57V1V57ZM890 1V57V1Z" fill="#4A4A4A" mask="url(#path-7-inside-1_66_41)"/>
<mask id="path-9-inside-2_66_41" fill="white">
<path d="M163 14C163 6.8203 168.82 1 176 1H344C351.18 1 357 6.8203 357 14V57H163V14Z"/>
</mask>
<path d="M163 14C163 6.8203 168.82 1 176 1H344C351.18 1 357 6.8203 357 14V57H163V14Z" fill="#0B0C0C"/>
<path d="M162 14C162 6.26801 168.268 0 176 0H344C351.732 0 358 6.26801 358 14H356C356 7.37258 350.627 2 344 2H176C169.373 2 164 7.37258 164 14H162ZM357 57H163H357ZM162 57V14C162 6.26801 168.268 0 176 0V2C169.373 2 164 7.37258 164 14V57H162ZM344 0C351.732 0 358 6.26801 358 14V57H356V14C356 7.37258 350.627 2 344 2V0Z" fill="#4A4A4A" mask="url(#path-9-inside-2_66_41)"/>
<path d="M206.852 33.125V41H204.841V23.5455H206.852V29.9545H207.023C207.33 29.2784 207.79 28.7415 208.403 28.3438C209.023 27.9403 209.847 27.7386 210.875 27.7386C211.767 27.7386 212.548 27.9176 213.219 28.2756C213.889 28.6278 214.409 29.1705 214.778 29.9034C215.153 30.6307 215.341 31.5568 215.341 32.6818V41H213.33V32.8182C213.33 31.7784 213.06 30.9744 212.52 30.4062C211.986 29.8324 211.244 29.5455 210.295 29.5455C209.636 29.5455 209.045 29.6847 208.523 29.9631C208.006 30.2415 207.597 30.6477 207.295 31.1818C207 31.7159 206.852 32.3636 206.852 33.125ZM224.339 41.2727C223.157 41.2727 222.12 40.9915 221.228 40.429C220.342 39.8665 219.648 39.0795 219.148 38.0682C218.654 37.0568 218.407 35.875 218.407 34.5227C218.407 33.1591 218.654 31.9687 219.148 30.9517C219.648 29.9347 220.342 29.1449 221.228 28.5824C222.12 28.0199 223.157 27.7386 224.339 27.7386C225.521 27.7386 226.555 28.0199 227.441 28.5824C228.333 29.1449 229.026 29.9347 229.521 30.9517C230.021 31.9687 230.271 33.1591 230.271 34.5227C230.271 35.875 230.021 37.0568 229.521 38.0682C229.026 39.0795 228.333 39.8665 227.441 40.429C226.555 40.9915 225.521 41.2727 224.339 41.2727ZM224.339 39.4659C225.237 39.4659 225.975 39.2358 226.555 38.7756C227.134 38.3153 227.563 37.7102 227.842 36.9602C228.12 36.2102 228.259 35.3977 228.259 34.5227C228.259 33.6477 228.12 32.8324 227.842 32.0767C227.563 31.321 227.134 30.7102 226.555 30.2443C225.975 29.7784 225.237 29.5455 224.339 29.5455C223.441 29.5455 222.702 29.7784 222.123 30.2443C221.543 30.7102 221.114 31.321 220.836 32.0767C220.558 32.8324 220.418 33.6477 220.418 34.5227C220.418 35.3977 220.558 36.2102 220.836 36.9602C221.114 37.7102 221.543 38.3153 222.123 38.7756C222.702 39.2358 223.441 39.4659 224.339 39.4659ZM233.341 41V27.9091H235.284V29.9545H235.455C235.727 29.2557 236.168 28.7131 236.776 28.3267C237.384 27.9347 238.114 27.7386 238.966 27.7386C239.83 27.7386 240.548 27.9347 241.122 28.3267C241.702 28.7131 242.153 29.2557 242.477 29.9545H242.614C242.949 29.2784 243.452 28.7415 244.122 28.3438C244.793 27.9403 245.597 27.7386 246.534 27.7386C247.705 27.7386 248.662 28.1051 249.406 28.8381C250.151 29.5653 250.523 30.6989 250.523 32.2386V41H248.511V32.2386C248.511 31.2727 248.247 30.5824 247.719 30.1676C247.19 29.7528 246.568 29.5455 245.852 29.5455C244.932 29.5455 244.219 29.8239 243.713 30.3807C243.207 30.9318 242.955 31.6307 242.955 32.4773V41H240.909V32.0341C240.909 31.2898 240.668 30.6903 240.185 30.2358C239.702 29.7756 239.08 29.5455 238.318 29.5455C237.795 29.5455 237.307 29.6847 236.852 29.9631C236.403 30.2415 236.04 30.6278 235.761 31.1222C235.489 31.6108 235.352 32.1761 235.352 32.8182V41H233.341ZM259.689 41.2727C258.428 41.2727 257.339 40.9943 256.425 40.4375C255.516 39.875 254.814 39.0909 254.32 38.0852C253.831 37.0739 253.587 35.8977 253.587 34.5568C253.587 33.2159 253.831 32.0341 254.32 31.0114C254.814 29.983 255.501 29.1818 256.382 28.608C257.268 28.0284 258.303 27.7386 259.484 27.7386C260.166 27.7386 260.839 27.8523 261.504 28.0795C262.169 28.3068 262.774 28.6761 263.32 29.1875C263.865 29.6932 264.3 30.3636 264.624 31.1989C264.947 32.0341 265.109 33.0625 265.109 34.2841V35.1364H255.018V33.3977H263.064C263.064 32.6591 262.916 32 262.621 31.4205C262.331 30.8409 261.916 30.3835 261.376 30.0483C260.842 29.7131 260.212 29.5455 259.484 29.5455C258.683 29.5455 257.99 29.7443 257.405 30.142C256.825 30.5341 256.379 31.0455 256.067 31.6761C255.754 32.3068 255.598 32.983 255.598 33.7045V34.8636C255.598 35.8523 255.768 36.6903 256.109 37.3778C256.456 38.0597 256.936 38.5795 257.55 38.9375C258.163 39.2898 258.876 39.4659 259.689 39.4659C260.217 39.4659 260.695 39.392 261.121 39.2443C261.553 39.0909 261.925 38.8636 262.237 38.5625C262.55 38.2557 262.791 37.875 262.962 37.4205L264.905 37.9659C264.7 38.625 264.357 39.2045 263.874 39.7045C263.391 40.1989 262.794 40.5852 262.084 40.8636C261.374 41.1364 260.575 41.2727 259.689 41.2727ZM269.635 41.1364C269.214 41.1364 268.854 40.9858 268.553 40.6847C268.251 40.3835 268.101 40.0227 268.101 39.6023C268.101 39.1818 268.251 38.821 268.553 38.5199C268.854 38.2187 269.214 38.0682 269.635 38.0682C270.055 38.0682 270.416 38.2187 270.717 38.5199C271.018 38.821 271.169 39.1818 271.169 39.6023C271.169 39.8807 271.098 40.1364 270.956 40.3693C270.82 40.6023 270.635 40.7898 270.402 40.9318C270.175 41.0682 269.919 41.1364 269.635 41.1364ZM280.472 27.9091V29.6136H273.688V27.9091H280.472ZM275.665 24.7727H277.676V37.25C277.676 37.8182 277.759 38.2443 277.923 38.5284C278.094 38.8068 278.31 38.9943 278.571 39.0909C278.838 39.1818 279.119 39.2273 279.415 39.2273C279.636 39.2273 279.818 39.2159 279.96 39.1932C280.102 39.1648 280.216 39.142 280.301 39.125L280.71 40.9318C280.574 40.983 280.384 41.0341 280.139 41.0852C279.895 41.142 279.585 41.1705 279.21 41.1705C278.642 41.1705 278.085 41.0483 277.54 40.804C277 40.5597 276.551 40.1875 276.193 39.6875C275.841 39.1875 275.665 38.5568 275.665 37.7955V24.7727ZM292.536 30.8409L290.729 31.3523C290.615 31.0511 290.447 30.7585 290.226 30.4744C290.01 30.1847 289.714 29.946 289.339 29.7585C288.964 29.571 288.484 29.4773 287.899 29.4773C287.098 29.4773 286.43 29.6619 285.896 30.0312C285.368 30.3949 285.104 30.858 285.104 31.4205C285.104 31.9205 285.286 32.3153 285.649 32.6051C286.013 32.8949 286.581 33.1364 287.354 33.3295L289.297 33.8068C290.467 34.0909 291.339 34.5256 291.913 35.1108C292.487 35.6903 292.774 36.4375 292.774 37.3523C292.774 38.1023 292.558 38.7727 292.126 39.3636C291.7 39.9545 291.104 40.4205 290.337 40.7614C289.57 41.1023 288.678 41.2727 287.661 41.2727C286.325 41.2727 285.22 40.983 284.345 40.4034C283.47 39.8239 282.916 38.9773 282.683 37.8636L284.592 37.3864C284.774 38.0909 285.118 38.6193 285.624 38.9716C286.135 39.3239 286.803 39.5 287.626 39.5C288.564 39.5 289.308 39.3011 289.859 38.9034C290.416 38.5 290.695 38.017 290.695 37.4545C290.695 37 290.536 36.6193 290.217 36.3125C289.899 36 289.411 35.767 288.751 35.6136L286.57 35.1023C285.371 34.8182 284.49 34.3778 283.928 33.7812C283.371 33.179 283.092 32.4261 283.092 31.5227C283.092 30.7841 283.3 30.1307 283.714 29.5625C284.135 28.9943 284.706 28.5483 285.428 28.2244C286.155 27.9006 286.979 27.7386 287.899 27.7386C289.195 27.7386 290.212 28.0227 290.95 28.5909C291.695 29.1591 292.223 29.9091 292.536 30.8409ZM297.302 27.9091L300.438 33.2614L303.575 27.9091H305.893L301.665 34.4545L305.893 41H303.575L300.438 35.9205L297.302 41H294.984L299.143 34.4545L294.984 27.9091H297.302Z" fill="#949494"/>
<circle cx="28" cy="28" r="10" fill="#E53935"/>
<circle cx="84" cy="28" r="10" fill="#39B50E"/>
<circle cx="56" cy="28" r="10" fill="#FFB800"/>
</g>
<rect x="0.5" y="0.5" width="890" height="515" rx="15.5" stroke="#4A4A4A"/>
<rect x="412.5" y="229.5" width="705" height="429" rx="15.5" fill="white"/>
<rect x="412.5" y="229.5" width="705" height="429" rx="15.5" stroke="#4A4A4A"/>
<rect x="413" y="230" width="704" height="428" rx="15" fill="#0B0C0C"/>
<mask id="path-17-inside-3_66_41" fill="white">
<path d="M413 245C413 236.716 419.716 230 428 230H1102C1110.28 230 1117 236.716 1117 245V312H413V245Z"/>
</mask>
<path d="M413 245C413 236.716 419.716 230 428 230H1102C1110.28 230 1117 236.716 1117 245V312H413V245Z" fill="#0B0C0C"/>
<path d="M413 230H1117H413ZM1117 313H413V311H1117V313ZM413 312V230V312ZM1117 230V312V230Z" fill="#4A4A4A" mask="url(#path-17-inside-3_66_41)"/>
<circle cx="440" cy="267" r="10" fill="#E53935"/>
<circle cx="496" cy="267" r="10" fill="#39B50E"/>
<circle cx="468" cy="267" r="10" fill="#FFB800"/>
<rect x="574" y="241" width="409" height="51" rx="15" fill="#232323"/>
<rect x="450" y="338" width="284" height="284" rx="15" fill="#4A4A4A"/>
<rect x="947" y="338" width="131" height="142" rx="15" fill="#4A4A4A"/>
<rect x="947" y="498" width="131" height="124" rx="15" fill="#F53FA9"/>
<rect x="755" y="444" width="171" height="178" rx="15" fill="#232323"/>
<rect x="755" y="338" width="171" height="32" rx="15" fill="#F53FA9"/>
<rect x="755" y="391" width="171" height="32" rx="15" fill="#232323"/>
<path d="M595.21 266.438V273H593.534V258.455H595.21V263.795H595.352C595.608 263.232 595.991 262.785 596.503 262.453C597.019 262.117 597.705 261.949 598.562 261.949C599.306 261.949 599.957 262.098 600.516 262.396C601.074 262.69 601.508 263.142 601.815 263.753C602.128 264.359 602.284 265.131 602.284 266.068V273H600.608V266.182C600.608 265.315 600.383 264.645 599.933 264.172C599.488 263.694 598.87 263.455 598.08 263.455C597.53 263.455 597.038 263.571 596.602 263.803C596.171 264.035 595.83 264.373 595.58 264.818C595.333 265.263 595.21 265.803 595.21 266.438ZM610.095 262.091V263.511H604.441V262.091H610.095ZM606.089 259.477H607.765V269.875C607.765 270.348 607.834 270.704 607.971 270.94C608.113 271.172 608.293 271.329 608.511 271.409C608.734 271.485 608.968 271.523 609.214 271.523C609.399 271.523 609.55 271.513 609.669 271.494C609.787 271.471 609.882 271.452 609.953 271.438L610.294 272.943C610.18 272.986 610.021 273.028 609.818 273.071C609.614 273.118 609.356 273.142 609.044 273.142C608.57 273.142 608.106 273.04 607.652 272.837C607.202 272.633 606.828 272.323 606.529 271.906C606.236 271.49 606.089 270.964 606.089 270.33V259.477ZM617.36 262.091V263.511H611.707V262.091H617.36ZM613.355 259.477H615.031V269.875C615.031 270.348 615.1 270.704 615.237 270.94C615.379 271.172 615.559 271.329 615.777 271.409C615.999 271.485 616.234 271.523 616.48 271.523C616.664 271.523 616.816 271.513 616.934 271.494C617.053 271.471 617.147 271.452 617.218 271.438L617.559 272.943C617.446 272.986 617.287 273.028 617.083 273.071C616.88 273.118 616.622 273.142 616.309 273.142C615.836 273.142 615.372 273.04 614.917 272.837C614.467 272.633 614.093 272.323 613.795 271.906C613.502 271.49 613.355 270.964 613.355 270.33V259.477ZM619.882 277.091V262.091H621.501V263.824H621.7C621.823 263.634 621.993 263.393 622.211 263.099C622.434 262.801 622.751 262.536 623.163 262.304C623.58 262.067 624.143 261.949 624.853 261.949C625.772 261.949 626.582 262.179 627.282 262.638C627.983 263.097 628.53 263.748 628.923 264.591C629.316 265.434 629.512 266.428 629.512 267.574C629.512 268.729 629.316 269.731 628.923 270.578C628.53 271.421 627.985 272.074 627.289 272.538C626.593 272.998 625.791 273.227 624.882 273.227C624.181 273.227 623.62 273.111 623.199 272.879C622.777 272.643 622.453 272.375 622.225 272.077C621.998 271.774 621.823 271.523 621.7 271.324H621.558V277.091H619.882ZM621.529 267.545C621.529 268.369 621.65 269.096 621.892 269.726C622.133 270.351 622.486 270.841 622.95 271.196C623.414 271.546 623.982 271.722 624.654 271.722C625.355 271.722 625.94 271.537 626.409 271.168C626.882 270.794 627.237 270.292 627.474 269.662C627.716 269.027 627.836 268.322 627.836 267.545C627.836 266.778 627.718 266.087 627.481 265.472C627.249 264.851 626.896 264.361 626.423 264.001C625.954 263.637 625.365 263.455 624.654 263.455C623.973 263.455 623.4 263.627 622.936 263.973C622.472 264.314 622.121 264.792 621.885 265.408C621.648 266.018 621.529 266.731 621.529 267.545ZM639.797 264.534L638.291 264.96C638.196 264.709 638.056 264.465 637.872 264.229C637.692 263.987 637.446 263.788 637.133 263.632C636.821 263.476 636.421 263.398 635.933 263.398C635.265 263.398 634.709 263.552 634.264 263.859C633.824 264.162 633.603 264.548 633.603 265.017C633.603 265.434 633.755 265.763 634.058 266.004C634.361 266.246 634.834 266.447 635.478 266.608L637.098 267.006C638.073 267.242 638.8 267.605 639.278 268.092C639.756 268.575 639.995 269.198 639.995 269.96C639.995 270.585 639.815 271.144 639.456 271.636C639.1 272.129 638.603 272.517 637.964 272.801C637.325 273.085 636.582 273.227 635.734 273.227C634.621 273.227 633.7 272.986 632.971 272.503C632.242 272.02 631.78 271.314 631.586 270.386L633.177 269.989C633.329 270.576 633.615 271.016 634.037 271.31C634.463 271.603 635.019 271.75 635.706 271.75C636.487 271.75 637.107 271.584 637.566 271.253C638.03 270.917 638.262 270.514 638.262 270.045C638.262 269.667 638.13 269.349 637.865 269.094C637.6 268.833 637.192 268.639 636.643 268.511L634.825 268.085C633.826 267.848 633.092 267.482 632.623 266.984C632.159 266.482 631.927 265.855 631.927 265.102C631.927 264.487 632.1 263.942 632.446 263.469C632.796 262.995 633.272 262.624 633.873 262.354C634.479 262.084 635.166 261.949 635.933 261.949C637.012 261.949 637.86 262.186 638.475 262.659C639.096 263.133 639.536 263.758 639.797 264.534ZM643.74 273.114C643.39 273.114 643.089 272.988 642.838 272.737C642.587 272.486 642.462 272.186 642.462 271.835C642.462 271.485 642.587 271.184 642.838 270.933C643.089 270.682 643.39 270.557 643.74 270.557C644.09 270.557 644.391 270.682 644.642 270.933C644.893 271.184 645.018 271.485 645.018 271.835C645.018 272.067 644.959 272.28 644.841 272.474C644.727 272.669 644.573 272.825 644.379 272.943C644.19 273.057 643.977 273.114 643.74 273.114ZM643.74 265.017C643.39 265.017 643.089 264.892 642.838 264.641C642.587 264.39 642.462 264.089 642.462 263.739C642.462 263.388 642.587 263.088 642.838 262.837C643.089 262.586 643.39 262.46 643.74 262.46C644.09 262.46 644.391 262.586 644.642 262.837C644.893 263.088 645.018 263.388 645.018 263.739C645.018 263.971 644.959 264.184 644.841 264.378C644.727 264.572 644.573 264.728 644.379 264.847C644.19 264.96 643.977 265.017 643.74 265.017ZM653.168 257.773L648.481 275.188H646.947L651.634 257.773H653.168ZM660.297 257.773L655.61 275.188H654.076L658.763 257.773H660.297ZM664.756 273L661.432 262.091H663.193L665.551 270.443H665.665L667.994 262.091H669.784L672.085 270.415H672.199L674.557 262.091H676.318L672.994 273H671.347L668.96 264.619H668.79L666.403 273H664.756ZM682.595 273.227C681.61 273.227 680.746 272.993 680.002 272.524C679.264 272.055 678.686 271.4 678.27 270.557C677.858 269.714 677.652 268.729 677.652 267.602C677.652 266.466 677.858 265.474 678.27 264.626C678.686 263.779 679.264 263.121 680.002 262.652C680.746 262.183 681.61 261.949 682.595 261.949C683.58 261.949 684.441 262.183 685.18 262.652C685.923 263.121 686.501 263.779 686.913 264.626C687.33 265.474 687.538 266.466 687.538 267.602C687.538 268.729 687.33 269.714 686.913 270.557C686.501 271.4 685.923 272.055 685.18 272.524C684.441 272.993 683.58 273.227 682.595 273.227ZM682.595 271.722C683.343 271.722 683.958 271.53 684.441 271.146C684.924 270.763 685.282 270.259 685.514 269.634C685.746 269.009 685.862 268.331 685.862 267.602C685.862 266.873 685.746 266.194 685.514 265.564C685.282 264.934 684.924 264.425 684.441 264.037C683.958 263.649 683.343 263.455 682.595 263.455C681.847 263.455 681.231 263.649 680.748 264.037C680.265 264.425 679.908 264.934 679.676 265.564C679.444 266.194 679.328 266.873 679.328 267.602C679.328 268.331 679.444 269.009 679.676 269.634C679.908 270.259 680.265 270.763 680.748 271.146C681.231 271.53 681.847 271.722 682.595 271.722ZM690.097 262.091H691.773V273.795C691.773 274.468 691.657 275.05 691.425 275.543C691.197 276.035 690.852 276.416 690.388 276.686C689.929 276.956 689.348 277.091 688.648 277.091C688.591 277.091 688.534 277.091 688.477 277.091C688.42 277.091 688.364 277.091 688.307 277.091V275.528C688.364 275.528 688.416 275.528 688.463 275.528C688.51 275.528 688.562 275.528 688.619 275.528C689.131 275.528 689.505 275.377 689.741 275.074C689.978 274.776 690.097 274.349 690.097 273.795V262.091ZM690.92 260.273C690.594 260.273 690.312 260.161 690.075 259.939C689.843 259.716 689.727 259.449 689.727 259.136C689.727 258.824 689.843 258.556 690.075 258.334C690.312 258.111 690.594 258 690.92 258C691.247 258 691.527 258.111 691.759 258.334C691.995 258.556 692.114 258.824 692.114 259.136C692.114 259.449 691.995 259.716 691.759 259.939C691.527 260.161 691.247 260.273 690.92 260.273ZM699.275 273.227C698.252 273.227 697.371 272.986 696.632 272.503C695.894 272.02 695.326 271.355 694.928 270.507C694.53 269.66 694.331 268.691 694.331 267.602C694.331 266.494 694.535 265.517 694.942 264.669C695.354 263.817 695.927 263.152 696.661 262.673C697.4 262.19 698.261 261.949 699.246 261.949C700.013 261.949 700.704 262.091 701.32 262.375C701.935 262.659 702.44 263.057 702.833 263.568C703.226 264.08 703.47 264.676 703.564 265.358H701.888C701.76 264.861 701.476 264.42 701.036 264.037C700.6 263.649 700.013 263.455 699.275 263.455C698.621 263.455 698.048 263.625 697.556 263.966C697.068 264.302 696.687 264.778 696.412 265.393C696.142 266.004 696.007 266.722 696.007 267.545C696.007 268.388 696.14 269.122 696.405 269.747C696.675 270.372 697.054 270.857 697.542 271.203C698.034 271.549 698.612 271.722 699.275 271.722C699.71 271.722 700.105 271.646 700.461 271.494C700.816 271.343 701.116 271.125 701.363 270.841C701.609 270.557 701.784 270.216 701.888 269.818H703.564C703.47 270.462 703.235 271.042 702.861 271.558C702.492 272.07 702.002 272.477 701.391 272.78C700.785 273.078 700.079 273.227 699.275 273.227ZM706.015 273V262.091H707.691V273H706.015ZM706.867 260.273C706.54 260.273 706.258 260.161 706.022 259.939C705.79 259.716 705.674 259.449 705.674 259.136C705.674 258.824 705.79 258.556 706.022 258.334C706.258 258.111 706.54 258 706.867 258C707.194 258 707.473 258.111 707.705 258.334C707.942 258.556 708.06 258.824 708.06 259.136C708.06 259.449 707.942 259.716 707.705 259.939C707.473 260.161 707.194 260.273 706.867 260.273ZM715.335 273.227C714.283 273.227 713.377 272.995 712.614 272.531C711.857 272.062 711.272 271.409 710.86 270.571C710.453 269.728 710.249 268.748 710.249 267.631C710.249 266.513 710.453 265.528 710.86 264.676C711.272 263.819 711.845 263.152 712.579 262.673C713.317 262.19 714.179 261.949 715.164 261.949C715.732 261.949 716.293 262.044 716.847 262.233C717.401 262.422 717.906 262.73 718.36 263.156C718.815 263.578 719.177 264.136 719.447 264.832C719.717 265.528 719.852 266.385 719.852 267.403V268.114H711.442V266.665H718.147C718.147 266.049 718.024 265.5 717.778 265.017C717.536 264.534 717.191 264.153 716.741 263.874C716.296 263.594 715.77 263.455 715.164 263.455C714.496 263.455 713.919 263.62 713.431 263.952C712.948 264.278 712.576 264.705 712.316 265.23C712.056 265.756 711.925 266.319 711.925 266.92V267.886C711.925 268.71 712.067 269.409 712.352 269.982C712.64 270.55 713.04 270.983 713.552 271.281C714.063 271.575 714.657 271.722 715.335 271.722C715.775 271.722 716.173 271.66 716.528 271.537C716.888 271.409 717.198 271.22 717.458 270.969C717.719 270.713 717.92 270.396 718.062 270.017L719.681 270.472C719.511 271.021 719.224 271.504 718.822 271.92C718.419 272.332 717.922 272.654 717.33 272.886C716.738 273.114 716.073 273.227 715.335 273.227ZM726.833 273.227C725.81 273.227 724.93 272.986 724.191 272.503C723.452 272.02 722.884 271.355 722.487 270.507C722.089 269.66 721.89 268.691 721.89 267.602C721.89 266.494 722.094 265.517 722.501 264.669C722.913 263.817 723.486 263.152 724.219 262.673C724.958 262.19 725.82 261.949 726.805 261.949C727.572 261.949 728.263 262.091 728.879 262.375C729.494 262.659 729.998 263.057 730.391 263.568C730.784 264.08 731.028 264.676 731.123 265.358H729.447C729.319 264.861 729.035 264.42 728.594 264.037C728.159 263.649 727.572 263.455 726.833 263.455C726.18 263.455 725.607 263.625 725.114 263.966C724.627 264.302 724.246 264.778 723.971 265.393C723.701 266.004 723.566 266.722 723.566 267.545C723.566 268.388 723.699 269.122 723.964 269.747C724.234 270.372 724.612 270.857 725.1 271.203C725.593 271.549 726.17 271.722 726.833 271.722C727.269 271.722 727.664 271.646 728.019 271.494C728.374 271.343 728.675 271.125 728.921 270.841C729.167 270.557 729.343 270.216 729.447 269.818H731.123C731.028 270.462 730.794 271.042 730.42 271.558C730.05 272.07 729.56 272.477 728.95 272.78C728.344 273.078 727.638 273.227 726.833 273.227ZM735.249 266.438V273H733.573V258.455H735.249V263.795H735.391C735.647 263.232 736.031 262.785 736.542 262.453C737.058 262.117 737.745 261.949 738.602 261.949C739.345 261.949 739.996 262.098 740.555 262.396C741.113 262.69 741.547 263.142 741.854 263.753C742.167 264.359 742.323 265.131 742.323 266.068V273H740.647V266.182C740.647 265.315 740.422 264.645 739.972 264.172C739.527 263.694 738.909 263.455 738.119 263.455C737.569 263.455 737.077 263.571 736.641 263.803C736.21 264.035 735.87 264.373 735.619 264.818C735.372 265.263 735.249 265.803 735.249 266.438ZM751.64 265.983V267.545H745.276V265.983H751.64ZM754.816 273V258.455H756.492V263.824H756.634C756.757 263.634 756.928 263.393 757.146 263.099C757.368 262.801 757.685 262.536 758.097 262.304C758.514 262.067 759.077 261.949 759.788 261.949C760.706 261.949 761.516 262.179 762.217 262.638C762.917 263.097 763.464 263.748 763.857 264.591C764.25 265.434 764.447 266.428 764.447 267.574C764.447 268.729 764.25 269.731 763.857 270.578C763.464 271.421 762.92 272.074 762.224 272.538C761.528 272.998 760.725 273.227 759.816 273.227C759.115 273.227 758.554 273.111 758.133 272.879C757.711 272.643 757.387 272.375 757.16 272.077C756.933 271.774 756.757 271.523 756.634 271.324H756.435V273H754.816ZM756.464 267.545C756.464 268.369 756.585 269.096 756.826 269.726C757.067 270.351 757.42 270.841 757.884 271.196C758.348 271.546 758.916 271.722 759.589 271.722C760.29 271.722 760.874 271.537 761.343 271.168C761.817 270.794 762.172 270.292 762.408 269.662C762.65 269.027 762.771 268.322 762.771 267.545C762.771 266.778 762.652 266.087 762.415 265.472C762.183 264.851 761.831 264.361 761.357 264.001C760.888 263.637 760.299 263.455 759.589 263.455C758.907 263.455 758.334 263.627 757.87 263.973C757.406 264.314 757.056 264.792 756.819 265.408C756.582 266.018 756.464 266.731 756.464 267.545ZM771.442 273.227C770.458 273.227 769.594 272.993 768.85 272.524C768.112 272.055 767.534 271.4 767.117 270.557C766.705 269.714 766.499 268.729 766.499 267.602C766.499 266.466 766.705 265.474 767.117 264.626C767.534 263.779 768.112 263.121 768.85 262.652C769.594 262.183 770.458 261.949 771.442 261.949C772.427 261.949 773.289 262.183 774.028 262.652C774.771 263.121 775.349 263.779 775.761 264.626C776.177 265.474 776.386 266.466 776.386 267.602C776.386 268.729 776.177 269.714 775.761 270.557C775.349 271.4 774.771 272.055 774.028 272.524C773.289 272.993 772.427 273.227 771.442 273.227ZM771.442 271.722C772.191 271.722 772.806 271.53 773.289 271.146C773.772 270.763 774.129 270.259 774.362 269.634C774.594 269.009 774.71 268.331 774.71 267.602C774.71 266.873 774.594 266.194 774.362 265.564C774.129 264.934 773.772 264.425 773.289 264.037C772.806 263.649 772.191 263.455 771.442 263.455C770.694 263.455 770.079 263.649 769.596 264.037C769.113 264.425 768.755 264.934 768.523 265.564C768.291 266.194 768.175 266.873 768.175 267.602C768.175 268.331 768.291 269.009 768.523 269.634C768.755 270.259 769.113 270.763 769.596 271.146C770.079 271.53 770.694 271.722 771.442 271.722ZM778.944 273V262.091H780.564V263.739H780.677C780.876 263.199 781.236 262.761 781.757 262.425C782.278 262.089 782.865 261.92 783.518 261.92C783.641 261.92 783.795 261.923 783.98 261.928C784.164 261.932 784.304 261.939 784.399 261.949V263.653C784.342 263.639 784.212 263.618 784.008 263.589C783.809 263.556 783.599 263.54 783.376 263.54C782.846 263.54 782.372 263.651 781.956 263.874C781.544 264.091 781.217 264.394 780.975 264.783C780.739 265.166 780.62 265.604 780.62 266.097V273H778.944ZM786.073 273V271.722L792.266 263.767V263.653H786.272V262.091H794.425V263.426L788.403 271.324V271.438H794.624V273H786.073ZM801.467 273.227C800.416 273.227 799.509 272.995 798.747 272.531C797.99 272.062 797.405 271.409 796.993 270.571C796.586 269.728 796.382 268.748 796.382 267.631C796.382 266.513 796.586 265.528 796.993 264.676C797.405 263.819 797.978 263.152 798.712 262.673C799.45 262.19 800.312 261.949 801.297 261.949C801.865 261.949 802.426 262.044 802.98 262.233C803.534 262.422 804.038 262.73 804.493 263.156C804.947 263.578 805.31 264.136 805.58 264.832C805.849 265.528 805.984 266.385 805.984 267.403V268.114H797.575V266.665H804.28C804.28 266.049 804.157 265.5 803.911 265.017C803.669 264.534 803.323 264.153 802.874 263.874C802.429 263.594 801.903 263.455 801.297 263.455C800.629 263.455 800.052 263.62 799.564 263.952C799.081 264.278 798.709 264.705 798.449 265.23C798.188 265.756 798.058 266.319 798.058 266.92V267.886C798.058 268.71 798.2 269.409 798.484 269.982C798.773 270.55 799.173 270.983 799.685 271.281C800.196 271.575 800.79 271.722 801.467 271.722C801.908 271.722 802.305 271.66 802.661 271.537C803.02 271.409 803.33 271.22 803.591 270.969C803.851 270.713 804.053 270.396 804.195 270.017L805.814 270.472C805.643 271.021 805.357 271.504 804.955 271.92C804.552 272.332 804.055 272.654 803.463 272.886C802.871 273.114 802.206 273.227 801.467 273.227ZM812.966 273.227C811.943 273.227 811.063 272.986 810.324 272.503C809.585 272.02 809.017 271.355 808.619 270.507C808.222 269.66 808.023 268.691 808.023 267.602C808.023 266.494 808.226 265.517 808.634 264.669C809.045 263.817 809.618 263.152 810.352 262.673C811.091 262.19 811.953 261.949 812.938 261.949C813.705 261.949 814.396 262.091 815.011 262.375C815.627 262.659 816.131 263.057 816.524 263.568C816.917 264.08 817.161 264.676 817.256 265.358H815.58C815.452 264.861 815.168 264.42 814.727 264.037C814.292 263.649 813.705 263.455 812.966 263.455C812.313 263.455 811.74 263.625 811.247 263.966C810.759 264.302 810.378 264.778 810.104 265.393C809.834 266.004 809.699 266.722 809.699 267.545C809.699 268.388 809.831 269.122 810.097 269.747C810.366 270.372 810.745 270.857 811.233 271.203C811.725 271.549 812.303 271.722 812.966 271.722C813.402 271.722 813.797 271.646 814.152 271.494C814.507 271.343 814.808 271.125 815.054 270.841C815.3 270.557 815.475 270.216 815.58 269.818H817.256C817.161 270.462 816.927 271.042 816.553 271.558C816.183 272.07 815.693 272.477 815.082 272.78C814.476 273.078 813.771 273.227 812.966 273.227ZM821.268 269.023L821.24 266.949H821.581L826.354 262.091H828.428L823.342 267.233H823.2L821.268 269.023ZM819.706 273V258.455H821.382V273H819.706ZM826.638 273L822.376 267.602L823.57 266.438L828.768 273H826.638ZM830.585 273V262.091H832.261V273H830.585ZM831.437 260.273C831.11 260.273 830.829 260.161 830.592 259.939C830.36 259.716 830.244 259.449 830.244 259.136C830.244 258.824 830.36 258.556 830.592 258.334C830.829 258.111 831.11 258 831.437 258C831.764 258 832.043 258.111 832.275 258.334C832.512 258.556 832.63 258.824 832.63 259.136C832.63 259.449 832.512 259.716 832.275 259.939C832.043 260.161 831.764 260.273 831.437 260.273ZM841.581 265.983V267.545H835.217V265.983H841.581ZM844.53 277.091V262.091H846.15V263.824H846.348C846.471 263.634 846.642 263.393 846.86 263.099C847.082 262.801 847.4 262.536 847.811 262.304C848.228 262.067 848.792 261.949 849.502 261.949C850.42 261.949 851.23 262.179 851.931 262.638C852.632 263.097 853.178 263.748 853.571 264.591C853.964 265.434 854.161 266.428 854.161 267.574C854.161 268.729 853.964 269.731 853.571 270.578C853.178 271.421 852.634 272.074 851.938 272.538C851.242 272.998 850.439 273.227 849.53 273.227C848.829 273.227 848.268 273.111 847.847 272.879C847.426 272.643 847.101 272.375 846.874 272.077C846.647 271.774 846.471 271.523 846.348 271.324H846.206V277.091H844.53ZM846.178 267.545C846.178 268.369 846.299 269.096 846.54 269.726C846.782 270.351 847.134 270.841 847.598 271.196C848.062 271.546 848.631 271.722 849.303 271.722C850.004 271.722 850.588 271.537 851.057 271.168C851.531 270.794 851.886 270.292 852.123 269.662C852.364 269.027 852.485 268.322 852.485 267.545C852.485 266.778 852.366 266.087 852.13 265.472C851.898 264.851 851.545 264.361 851.071 264.001C850.603 263.637 850.013 263.455 849.303 263.455C848.621 263.455 848.048 263.627 847.584 263.973C847.12 264.314 846.77 264.792 846.533 265.408C846.296 266.018 846.178 266.731 846.178 267.545ZM861.15 273.227C860.165 273.227 859.301 272.993 858.557 272.524C857.819 272.055 857.241 271.4 856.824 270.557C856.412 269.714 856.206 268.729 856.206 267.602C856.206 266.466 856.412 265.474 856.824 264.626C857.241 263.779 857.819 263.121 858.557 262.652C859.301 262.183 860.165 261.949 861.15 261.949C862.134 261.949 862.996 262.183 863.735 262.652C864.478 263.121 865.056 263.779 865.468 264.626C865.884 265.474 866.093 266.466 866.093 267.602C866.093 268.729 865.884 269.714 865.468 270.557C865.056 271.4 864.478 272.055 863.735 272.524C862.996 272.993 862.134 273.227 861.15 273.227ZM861.15 271.722C861.898 271.722 862.513 271.53 862.996 271.146C863.479 270.763 863.837 270.259 864.069 269.634C864.301 269.009 864.417 268.331 864.417 267.602C864.417 266.873 864.301 266.194 864.069 265.564C863.837 264.934 863.479 264.425 862.996 264.037C862.513 263.649 861.898 263.455 861.15 263.455C860.401 263.455 859.786 263.649 859.303 264.037C858.82 264.425 858.462 264.934 858.23 265.564C857.998 266.194 857.882 266.873 857.882 267.602C857.882 268.331 857.998 269.009 858.23 269.634C858.462 270.259 858.82 270.763 859.303 271.146C859.786 271.53 860.401 271.722 861.15 271.722ZM868.651 273V262.091H870.271V263.739H870.384C870.583 263.199 870.943 262.761 871.464 262.425C871.985 262.089 872.572 261.92 873.225 261.92C873.348 261.92 873.502 261.923 873.687 261.928C873.871 261.932 874.011 261.939 874.106 261.949V263.653C874.049 263.639 873.919 263.618 873.715 263.589C873.516 263.556 873.306 263.54 873.083 263.54C872.553 263.54 872.079 263.651 871.663 263.874C871.251 264.091 870.924 264.394 870.683 264.783C870.446 265.166 870.327 265.604 870.327 266.097V273H868.651ZM881.521 262.091V263.511H875.867V262.091H881.521ZM877.515 259.477H879.191V269.875C879.191 270.348 879.26 270.704 879.397 270.94C879.539 271.172 879.719 271.329 879.937 271.409C880.159 271.485 880.394 271.523 880.64 271.523C880.825 271.523 880.976 271.513 881.094 271.494C881.213 271.471 881.308 271.452 881.379 271.438L881.719 272.943C881.606 272.986 881.447 273.028 881.244 273.071C881.04 273.118 880.782 273.142 880.469 273.142C879.996 273.142 879.532 273.04 879.077 272.837C878.628 272.633 878.254 272.323 877.955 271.906C877.662 271.49 877.515 270.964 877.515 270.33V259.477ZM888.9 262.091V263.511H883.019V262.091H888.9ZM884.781 273V260.585C884.781 259.96 884.927 259.439 885.221 259.023C885.514 258.606 885.896 258.294 886.364 258.085C886.833 257.877 887.328 257.773 887.849 257.773C888.261 257.773 888.597 257.806 888.857 257.872C889.118 257.938 889.312 258 889.44 258.057L888.957 259.506C888.871 259.477 888.753 259.442 888.602 259.399C888.455 259.357 888.261 259.335 888.019 259.335C887.465 259.335 887.065 259.475 886.819 259.754C886.577 260.034 886.457 260.443 886.457 260.983V273H884.781ZM895.232 273.227C894.247 273.227 893.383 272.993 892.639 272.524C891.901 272.055 891.323 271.4 890.906 270.557C890.494 269.714 890.288 268.729 890.288 267.602C890.288 266.466 890.494 265.474 890.906 264.626C891.323 263.779 891.901 263.121 892.639 262.652C893.383 262.183 894.247 261.949 895.232 261.949C896.216 261.949 897.078 262.183 897.817 262.652C898.56 263.121 899.138 263.779 899.55 264.626C899.966 265.474 900.175 266.466 900.175 267.602C900.175 268.729 899.966 269.714 899.55 270.557C899.138 271.4 898.56 272.055 897.817 272.524C897.078 272.993 896.216 273.227 895.232 273.227ZM895.232 271.722C895.98 271.722 896.595 271.53 897.078 271.146C897.561 270.763 897.919 270.259 898.151 269.634C898.383 269.009 898.499 268.331 898.499 267.602C898.499 266.873 898.383 266.194 898.151 265.564C897.919 264.934 897.561 264.425 897.078 264.037C896.595 263.649 895.98 263.455 895.232 263.455C894.483 263.455 893.868 263.649 893.385 264.037C892.902 264.425 892.545 264.934 892.312 265.564C892.08 266.194 891.964 266.873 891.964 267.602C891.964 268.331 892.08 269.009 892.312 269.634C892.545 270.259 892.902 270.763 893.385 271.146C893.868 271.53 894.483 271.722 895.232 271.722ZM904.409 258.455V273H902.733V258.455H904.409ZM907.479 273V262.091H909.156V273H907.479ZM908.332 260.273C908.005 260.273 907.723 260.161 907.487 259.939C907.254 259.716 907.138 259.449 907.138 259.136C907.138 258.824 907.254 258.556 907.487 258.334C907.723 258.111 908.005 258 908.332 258C908.658 258 908.938 258.111 909.17 258.334C909.406 258.556 909.525 258.824 909.525 259.136C909.525 259.449 909.406 259.716 909.17 259.939C908.938 260.161 908.658 260.273 908.332 260.273ZM916.657 273.227C915.672 273.227 914.808 272.993 914.065 272.524C913.326 272.055 912.749 271.4 912.332 270.557C911.92 269.714 911.714 268.729 911.714 267.602C911.714 266.466 911.92 265.474 912.332 264.626C912.749 263.779 913.326 263.121 914.065 262.652C914.808 262.183 915.672 261.949 916.657 261.949C917.642 261.949 918.504 262.183 919.243 262.652C919.986 263.121 920.564 263.779 920.975 264.626C921.392 265.474 921.6 266.466 921.6 267.602C921.6 268.729 921.392 269.714 920.975 270.557C920.564 271.4 919.986 272.055 919.243 272.524C918.504 272.993 917.642 273.227 916.657 273.227ZM916.657 271.722C917.405 271.722 918.021 271.53 918.504 271.146C918.987 270.763 919.344 270.259 919.576 269.634C919.808 269.009 919.924 268.331 919.924 267.602C919.924 266.873 919.808 266.194 919.576 265.564C919.344 264.934 918.987 264.425 918.504 264.037C918.021 263.649 917.405 263.455 916.657 263.455C915.909 263.455 915.294 263.649 914.811 264.037C914.328 264.425 913.97 264.934 913.738 265.564C913.506 266.194 913.39 266.873 913.39 267.602C913.39 268.331 913.506 269.009 913.738 269.634C913.97 270.259 914.328 270.763 914.811 271.146C915.294 271.53 915.909 271.722 916.657 271.722ZM925.381 273.114C925.03 273.114 924.73 272.988 924.479 272.737C924.228 272.486 924.102 272.186 924.102 271.835C924.102 271.485 924.228 271.184 924.479 270.933C924.73 270.682 925.03 270.557 925.381 270.557C925.731 270.557 926.032 270.682 926.283 270.933C926.534 271.184 926.659 271.485 926.659 271.835C926.659 272.067 926.6 272.28 926.482 272.474C926.368 272.669 926.214 272.825 926.02 272.943C925.83 273.057 925.617 273.114 925.381 273.114ZM938.587 262.091L934.553 273H932.849L928.815 262.091H930.633L933.644 270.784H933.758L936.769 262.091H938.587ZM944.983 273.227C943.932 273.227 943.025 272.995 942.263 272.531C941.505 272.062 940.92 271.409 940.509 270.571C940.101 269.728 939.898 268.748 939.898 267.631C939.898 266.513 940.101 265.528 940.509 264.676C940.92 263.819 941.493 263.152 942.227 262.673C942.966 262.19 943.828 261.949 944.812 261.949C945.381 261.949 945.942 262.044 946.496 262.233C947.05 262.422 947.554 262.73 948.009 263.156C948.463 263.578 948.825 264.136 949.095 264.832C949.365 265.528 949.5 266.385 949.5 267.403V268.114H941.091V266.665H947.795C947.795 266.049 947.672 265.5 947.426 265.017C947.185 264.534 946.839 264.153 946.389 263.874C945.944 263.594 945.419 263.455 944.812 263.455C944.145 263.455 943.567 263.62 943.08 263.952C942.597 264.278 942.225 264.705 941.964 265.23C941.704 265.756 941.574 266.319 941.574 266.92V267.886C941.574 268.71 941.716 269.409 942 269.982C942.289 270.55 942.689 270.983 943.2 271.281C943.712 271.575 944.306 271.722 944.983 271.722C945.423 271.722 945.821 271.66 946.176 271.537C946.536 271.409 946.846 271.22 947.107 270.969C947.367 270.713 947.568 270.396 947.71 270.017L949.33 270.472C949.159 271.021 948.873 271.504 948.47 271.92C948.068 272.332 947.571 272.654 946.979 272.886C946.387 273.114 945.722 273.227 944.983 273.227ZM953.271 273.114C952.921 273.114 952.62 272.988 952.369 272.737C952.118 272.486 951.993 272.186 951.993 271.835C951.993 271.485 952.118 271.184 952.369 270.933C952.62 270.682 952.921 270.557 953.271 270.557C953.622 270.557 953.922 270.682 954.173 270.933C954.424 271.184 954.55 271.485 954.55 271.835C954.55 272.067 954.491 272.28 954.372 272.474C954.259 272.669 954.105 272.825 953.911 272.943C953.721 273.057 953.508 273.114 953.271 273.114ZM958.779 273.114C958.429 273.114 958.128 272.988 957.877 272.737C957.626 272.486 957.501 272.186 957.501 271.835C957.501 271.485 957.626 271.184 957.877 270.933C958.128 270.682 958.429 270.557 958.779 270.557C959.129 270.557 959.43 270.682 959.681 270.933C959.932 271.184 960.058 271.485 960.058 271.835C960.058 272.067 959.998 272.28 959.88 272.474C959.766 272.669 959.612 272.825 959.418 272.943C959.229 273.057 959.016 273.114 958.779 273.114ZM964.287 273.114C963.937 273.114 963.636 272.988 963.385 272.737C963.134 272.486 963.009 272.186 963.009 271.835C963.009 271.485 963.134 271.184 963.385 270.933C963.636 270.682 963.937 270.557 964.287 270.557C964.637 270.557 964.938 270.682 965.189 270.933C965.44 271.184 965.565 271.485 965.565 271.835C965.565 272.067 965.506 272.28 965.388 272.474C965.274 272.669 965.12 272.825 964.926 272.943C964.737 273.057 964.524 273.114 964.287 273.114Z" fill="white"/>
<defs>
<clipPath id="clip0_66_41">
<rect x="1" y="1" width="889" height="514" rx="15" fill="white"/>
</clipPath>
</defs>
</svg>
