<?xml version="1.0" encoding="UTF-8"?>
<svg id="Warstwa_1" data-name="Warstwa 1" xmlns="http://www.w3.org/2000/svg" viewBox="0 0 197.1 51.7">
  <defs>
    <style>
      .cls-1 {
        fill: #fffef6;
      }

      .cls-2 {
        fill: #62b87b;
      }
    </style>
  </defs>
  <path class="cls-1" d="m20.8,13.9c3,0,5.6.6,7.9,1.7,2.3,1.2,4.1,2.9,5.5,5.3,1.4,2.4,2,5.5,2,9.2v21.1h-8.6v-20c0-3.3-.8-5.7-2.3-7.3-1.5-1.6-3.7-2.4-6.5-2.4s-3.8.4-5.4,1.2c-1.6.8-2.8,2.1-3.6,3.7-.9,1.6-1.3,3.7-1.3,6.2v18.6H0V0h8.6v24.4l-1.8-3.1c1.2-2.3,3.1-4.2,5.6-5.5,2.5-1.3,5.3-1.9,8.5-1.9Z"/>
  <path class="cls-1" d="m58.3,51.7c-2.8,0-5.2-.5-7.2-1.4s-3.7-2.3-4.8-3.9c-1.1-1.7-1.7-3.6-1.7-5.7s.5-3.9,1.5-5.6c1-1.7,2.6-3,4.9-3.9,2.3-1,5.2-1.4,9-1.4h10.7v5.7h-10.1c-2.9,0-4.9.5-5.9,1.4-1,.9-1.6,2.1-1.6,3.6s.6,2.7,1.9,3.7c1.2.9,3,1.4,5.2,1.4s4-.5,5.7-1.4c1.7-1,2.9-2.4,3.7-4.3l1.4,5.2c-.8,2.2-2.3,3.8-4.4,5-2.1,1.2-4.8,1.8-8.1,1.8Zm11.6-.5v-7.5l-.4-1.5v-13c0-2.5-.8-4.5-2.3-5.9-1.5-1.4-3.9-2.1-7-2.1s-4,.3-6,1c-2,.6-3.7,1.5-5.1,2.7l-3.4-6.3c2-1.5,4.4-2.7,7.1-3.4,2.7-.8,5.5-1.2,8.5-1.2,5.4,0,9.5,1.3,12.4,3.9,2.9,2.6,4.3,6.5,4.3,11.9v21.6h-8.1Z"/>
  <path class="cls-1" d="m86,51.2v-5.5l22.7-27.5,1.7,3h-23.9v-6.9h30.8v5.5l-22.7,27.5-1.7-3h25v6.9h-31.8Z"/>
  <path class="cls-1" d="m125.9,51.2V0h8.6v51.2h-8.6Z"/>
  <path class="cls-1" d="m163,51.7c-4.1,0-7.7-.8-10.7-2.4-3.1-1.6-5.4-3.9-7.1-6.7-1.7-2.8-2.5-6.1-2.5-9.8s.8-6.9,2.4-9.8c1.6-2.8,3.9-5.1,6.8-6.7,2.9-1.6,6.2-2.4,9.8-2.4s6.8.8,9.6,2.4c2.8,1.6,5,3.8,6.6,6.7,1.6,2.9,2.4,6.2,2.4,10.1s0,.7,0,1.2,0,.9-.1,1.3h-30.7v-5.7h26.2l-3.4,1.8c0-2.1-.4-3.9-1.3-5.6-.9-1.6-2.1-2.9-3.7-3.8-1.6-.9-3.4-1.3-5.5-1.3s-3.9.4-5.6,1.3c-1.6.9-2.9,2.2-3.8,3.8-.9,1.7-1.3,3.6-1.3,5.7v1.4c0,2.2.5,4.2,1.5,5.9,1,1.7,2.4,3,4.2,4,1.8.9,4,1.4,6.4,1.4s3.9-.3,5.6-1,3.1-1.7,4.4-3l4.7,5.4c-1.7,1.9-3.8,3.4-6.3,4.4-2.5,1-5.4,1.5-8.6,1.5Z"/>
  <path class="cls-2" d="m191.5,51.7c-1.6,0-3-.5-4.1-1.6-1.1-1.1-1.7-2.5-1.7-4.2s.6-3.1,1.7-4.1c1.1-1,2.5-1.6,4.1-1.6s2.8.5,3.9,1.6c1.1,1,1.7,2.4,1.7,4.1s-.6,3.1-1.7,4.2c-1.1,1.1-2.4,1.6-3.9,1.6Z"/>
</svg>