<?xml version="1.0" standalone="no"?>
<!DOCTYPE svg PUBLIC "-//W3C//DTD SVG 20010904//EN"
 "http://www.w3.org/TR/2001/REC-SVG-20010904/DTD/svg10.dtd">
<svg version="1.0" xmlns="http://www.w3.org/2000/svg"
 width="816.000000pt" height="816.000000pt" viewBox="0 0 816.000000 816.000000"
 preserveAspectRatio="xMidYMid meet">
<metadata>
Created by potrace 1.14, written by Peter Selinger 2001-2017
</metadata>
<g transform="translate(0.000000,816.000000) scale(0.100000,-0.100000)"
fill="#000000" stroke="none">
<path d="M5828 8139 c-48 -10 -98 -24 -110 -30 -13 -7 -23 -11 -23 -10 0 13
-135 -55 -215 -108 -53 -35 -185 -160 -223 -211 -23 -31 -106 -198 -112 -225
-2 -11 -12 -49 -21 -85 -21 -86 -25 -288 -7 -388 15 -80 20 -105 23 -109 2 -2
3 -6 4 -10 7 -29 31 -92 42 -110 8 -13 11 -23 7 -23 -5 0 -3 -4 3 -8 6 -4 25
-32 42 -62 17 -30 42 -68 54 -83 33 -41 148 -156 148 -148 0 3 4 1 8 -5 15
-23 137 -94 211 -123 185 -71 429 -85 611 -34 76 21 194 78 260 126 67 49 210
194 210 213 0 8 4 14 9 14 10 0 20 17 72 121 52 103 92 280 92 409 0 59 -14
191 -23 214 -5 14 -8 26 -5 26 9 0 -48 149 -81 209 -120 220 -379 412 -599
445 -16 2 -30 5 -30 7 0 1 -58 3 -130 4 -96 2 -153 -2 -217 -16z"/>
<path d="M1210 4074 c0 -2230 3 -4055 8 -4055 21 -4 1329 -5 1339 -1 8 2 9 11
3 27 -5 14 -6 27 0 30 5 3 5 18 0 35 -5 17 -5 30 0 30 5 0 5 13 0 30 -5 17 -5
30 0 30 5 0 5 13 0 30 -5 17 -5 30 0 30 5 0 5 12 1 28 -5 15 -5 37 0 49 5 13
4 25 -1 28 -6 3 -6 15 0 29 5 13 6 27 3 30 -8 7 -7 95 0 103 3 3 2 15 -3 28
-5 13 -6 26 -3 29 7 7 7 221 0 233 -3 5 -2 15 3 23 4 7 4 23 0 36 -5 12 -6 25
-3 28 7 7 7 221 0 233 -3 5 -2 15 3 23 4 7 4 23 0 36 -5 12 -6 25 -3 28 7 7 7
221 0 233 -3 5 -2 15 3 23 4 7 4 23 0 36 -5 12 -6 25 -3 28 7 7 7 221 0 233
-3 5 -2 15 3 23 4 7 4 23 0 36 -5 12 -6 25 -3 28 7 7 7 221 0 233 -3 5 -2 15
3 23 4 7 4 23 0 36 -5 12 -6 25 -3 28 7 7 7 221 0 233 -3 5 -2 15 3 23 4 7 4
23 0 36 -5 12 -6 25 -3 28 7 7 7 221 0 233 -3 5 -2 15 3 23 4 7 4 24 0 36 -5
13 -5 26 -1 29 5 3 5 21 1 40 -4 19 -5 35 -1 35 3 0 6 66 7 148 0 137 7 260
18 307 2 11 7 43 10 70 20 150 82 349 152 488 120 237 235 380 418 518 111 85
382 216 502 244 10 2 37 9 59 14 116 28 201 35 440 36 182 0 337 -9 355 -20 4
-2 25 -6 47 -9 131 -16 340 -99 478 -191 73 -48 245 -207 245 -226 0 -4 6 -14
13 -21 20 -19 87 -121 87 -131 0 -5 9 -21 19 -35 10 -15 19 -30 20 -35 0 -4 7
-20 15 -35 38 -76 101 -296 121 -424 26 -169 28 -275 28 -1936 1 -1132 4
-1642 12 -1643 5 -1 313 -2 683 -3 l673 -1 -4 1855 c-2 1020 -7 1869 -10 1885
-3 17 -8 59 -12 95 -4 36 -8 76 -10 90 -10 69 -16 106 -20 120 -2 8 -7 38 -11
65 -3 28 -10 58 -15 68 -6 9 -8 17 -5 17 7 0 -40 170 -79 280 -31 89 -121 288
-157 345 -132 209 -253 364 -377 479 -35 34 -72 69 -82 78 -10 9 -20 14 -23
10 -3 -3 -6 0 -6 6 0 16 -273 212 -295 212 -3 0 -22 10 -43 23 -20 13 -53 29
-72 37 -19 8 -37 16 -40 19 -9 11 -313 121 -350 127 -14 3 -34 8 -45 11 -11 4
-26 8 -32 10 -7 2 -19 5 -25 6 -41 11 -158 35 -208 42 -19 2 -46 7 -60 10
-108 22 -448 39 -467 24 -10 -9 -30 -11 -83 -8 -15 1 -190 -10 -260 -16 -62
-5 -145 -16 -159 -21 -8 -2 -37 -7 -65 -10 -28 -3 -55 -9 -61 -12 -5 -3 -17
-7 -25 -7 -107 -5 -409 -106 -615 -206 -156 -76 -199 -100 -294 -167 -140 -97
-157 -111 -279 -227 -46 -44 -87 -81 -90 -83 -4 -1 -7 663 -7 1475 l0 1478
-682 2 -683 2 0 -4055z"/>
</g>
</svg>
