<?xml version="1.0" encoding="UTF-8"?>
<svg id="Warstwa_1" data-name="Warstwa 1" xmlns="http://www.w3.org/2000/svg" viewBox="0 0 206.2 68.4">
  <defs>
    <style>
      .cls-1 {
        fill: #188ccc;
      }

      .cls-2 {
        fill: #004672;
      }

      .cls-3 {
        fill: #1d1d1b;
      }
    </style>
  </defs>
  <path class="cls-1" d="m19.9.8v15.4c0,.4-.4.7-.7.7H3.5c-1.9,0-3.5-1.6-3.5-3.5v-4.3C0,4.1,4.1,0,9.1,0h10c.4,0,.7.4.7.7Z"/>
  <path class="cls-1" d="m35.1,17h-10.6c-.4,0-.7-.4-.7-.7V.7c0-.4.4-.7.7-.7h10.6c4.7,0,8.5,3.8,8.5,8.5h0c0,4.7-3.8,8.5-8.5,8.5Z"/>
  <rect class="cls-2" x="23.8" y="50.7" width="19.8" height="16.9" rx="3.5" ry="3.5"/>
  <path class="cls-2" d="m67.4,24.4v10.7c0,3-2.4,5.4-5.4,5.4h-13.6c-.4,0-.7-.4-.7-.7v-7c0-5,4.1-9.1,9.1-9.1h10c.4,0,.7.4.7.7Z"/>
  <path class="cls-2" d="m48.3,43.9h13.6c3,0,5.4,2.4,5.4,5.4v17.4c0,.4-.4.7-.7.7h-10c-5,0-9.1-4.1-9.1-9.1v-13.8c0-.4.4-.7.7-.7Z"/>
  <rect class="cls-2" x="23.8" y="20.3" width="19.8" height="26.9" rx="3.5" ry="3.5"/>
  <rect class="cls-1" x="0" y="20.3" width="19.8" height="35.3" rx="3.5" ry="3.5"/>
  <g>
    <path class="cls-3" d="m92.5,68.3c-3.2,0-6-1-8.4-3h-.1v2.2h-12.5V23.8s12.5,0,12.5,0v14.8c2.4-2,4.9-3,7.6-3h1.6c4.9,0,8.9,2.3,12,7,1.4,2.5,2.1,5.3,2.1,8.4v.4c0,7.7-2.9,13-8.8,15.9-2,.8-4,1.1-6,1.1Zm1.5-16.2v-1c0-3.1-.8-5.1-2.5-6.2-.9-.2-1.6-.4-2.2-.4h-.8c-2.7.3-4,.9-4,2-.5.4-.8,2.2-.9,5.4,0,4.3,1.3,6.7,4,7.2.4,0,.8,0,1.2.1,2.2,0,3.8-.9,4.5-2.6.4-1.1.6-2.5.6-4.4Z"/>
    <path class="cls-3" d="m130.2,35.1l3.6.8v11.5h-1.9c-4.8,0-8,1.3-9.5,4-.9,1.3-1.4,3.6-1.4,7v9.1h-12.1v-31.9h11.9v6.5l1.9-3.1c2-2.6,4.5-3.9,7.5-3.9Z"/>
    <path class="cls-3" d="m137.1,35.6h11.8v16.4c0,3.1,1.1,5,3.2,5.8.5,0,.8.1,1.1.1h.8c2.2,0,3.7-1.3,4.4-3.9,0-.3.1-.7.1-1.1v-17.3h11.9v32.1h-11.9v-4.4c-2.8,3.4-6,5.1-9.6,5.1h-.9c-5.1,0-8.6-2.6-10.4-7.7-.3-1.6-.5-3-.5-4.2v-20.8Z"/>
    <path class="cls-3" d="m185.9,46.1l6.9-10.5h13.4l-10.5,15.9,10.5,15.9h-13.4l-6.9-10.5v10.5h-12.5V23.8h12.5v22.3Z"/>
  </g>
</svg>